<?xml version="1.0" encoding="UTF-8" standalone="no"?>
<!DOCTYPE svg PUBLIC "-//W3C//DTD SVG 1.1//EN"
 "http://www.w3.org/Graphics/SVG/1.1/DTD/svg11.dtd">
<!-- Generated by graphviz version 13.0.1 (20250615.1724)
 -->
<!-- Title: import_cruiser Pages: 1 -->
<svg width="383pt" height="244pt"
 viewBox="-8.00 -8.00 383.00 244.00" xmlns="http://www.w3.org/2000/svg" xmlns:xlink="http://www.w3.org/1999/xlink">
<g id="graph0" class="graph" transform="scale(1 1) rotate(0) translate(4 224)">
<title>import_cruiser</title>
<polygon fill="white" stroke="none" points="-4,4 -4,-224 363,-224 363,4 -4,4"/>
<g id="clust1" class="cluster">
<title>cluster_src</title>
<path fill="#ffffff" stroke="black" stroke-width="2" d="M20,-8C20,-8 339,-8 339,-8 345,-8 351,-14 351,-20 351,-20 351,-200 351,-200 351,-206 345,-212 339,-212 339,-212 20,-212 20,-212 14,-212 8,-206 8,-200 8,-200 8,-20 8,-20 8,-14 14,-8 20,-8"/>
<text xml:space="preserve" text-anchor="middle" x="179.5" y="-199.45" font-family="Helvetica,sans-Serif" font-weight="bold" font-size="9.00">src [2673 LOC]</text>
</g>
<g id="clust2" class="cluster">
<title>cluster_src/import_cruiser</title>
<path fill="#ffffff" stroke="black" stroke-width="2" d="M28,-16C28,-16 331,-16 331,-16 337,-16 343,-22 343,-28 343,-28 343,-174 343,-174 343,-180 337,-186 331,-186 331,-186 28,-186 28,-186 22,-186 16,-180 16,-174 16,-174 16,-28 16,-28 16,-22 22,-16 28,-16"/>
<text xml:space="preserve" text-anchor="middle" x="179.5" y="-173.45" font-family="Helvetica,sans-Serif" font-weight="bold" font-size="9.00">import_cruiser [2673 LOC]</text>
</g>
<!-- src/import_cruiser/analyzer.py -->
<g id="node1" class="node">
<title>src/import_cruiser/analyzer.py</title>
<g id="a_node1"><a xlink:href="src/import_cruiser/analyzer.py" xlink:title="analyzer.py [346 LOC]">
<path fill="#ffffcc" stroke="black" d="M219.46,-129.88C219.46,-129.88 124.54,-129.88 124.54,-129.88 121.58,-129.88 118.62,-126.92 118.62,-123.96 118.62,-123.96 118.62,-118.04 118.62,-118.04 118.62,-115.08 121.58,-112.12 124.54,-112.12 124.54,-112.12 219.46,-112.12 219.46,-112.12 222.42,-112.12 225.38,-115.08 225.38,-118.04 225.38,-118.04 225.38,-123.96 225.38,-123.96 225.38,-126.92 222.42,-129.88 219.46,-129.88"/>
<text xml:space="preserve" text-anchor="start" x="126.62" y="-117.33" font-family="Helvetica,sans-Serif" font-size="9.00">analyzer.py [346 LOC]</text>
</a>
</g>
</g>
<!-- src/import_cruiser/graph.py -->
<g id="node6" class="node">
<title>src/import_cruiser/graph.py</title>
<g id="a_node6"><a xlink:href="src/import_cruiser/graph.py" xlink:title="graph.py [299 LOC]">
<path fill="#ffffcc" stroke="black" d="M329.08,-107.88C329.08,-107.88 245.42,-107.88 245.42,-107.88 242.46,-107.88 239.5,-104.92 239.5,-101.96 239.5,-101.96 239.5,-96.04 239.5,-96.04 239.5,-93.08 242.46,-90.12 245.42,-90.12 245.42,-90.12 329.08,-90.12 329.08,-90.12 332.04,-90.12 335,-93.08 335,-96.04 335,-96.04 335,-101.96 335,-101.96 335,-104.92 332.04,-107.88 329.08,-107.88"/>
<text xml:space="preserve" text-anchor="start" x="247.5" y="-95.33" font-family="Helvetica,sans-Serif" font-size="9.00">graph.py [299 LOC]</text>
</a>
</g>
</g>
<!-- src/import_cruiser/analyzer.py&#45;&gt;src/import_cruiser/graph.py -->
<g id="edge1" class="edge">
<title>src/import_cruiser/analyzer.py&#45;&gt;src/import_cruiser/graph.py</title>
<path fill="none" stroke="#000000" stroke-width="2" stroke-opacity="0.121569" d="M221.03,-111.67C224.14,-111.07 227.28,-110.46 230.42,-109.85"/>
<polygon fill="#000000" fill-opacity="0.121569" stroke="#000000" stroke-width="2" stroke-opacity="0.121569" points="230.77,-111.92 236.26,-108.71 229.97,-107.79 230.77,-111.92"/>
</g>
<!-- src/import_cruiser/cli.py -->
<g id="node2" class="node">
<title>src/import_cruiser/cli.py</title>
<g id="a_node2"><a xlink:href="src/import_cruiser/cli.py" xlink:title="cli.py [778 LOC]">
<path fill="#ffffcc" stroke="black" d="M98.58,-85.88C98.58,-85.88 29.92,-85.88 29.92,-85.88 26.96,-85.88 24,-82.92 24,-79.96 24,-79.96 24,-74.04 24,-74.04 24,-71.08 26.96,-68.12 29.92,-68.12 29.92,-68.12 98.58,-68.12 98.58,-68.12 101.54,-68.12 104.5,-71.08 104.5,-74.04 104.5,-74.04 104.5,-79.96 104.5,-79.96 104.5,-82.92 101.54,-85.88 98.58,-85.88"/>
<text xml:space="preserve" text-anchor="start" x="32" y="-73.33" font-family="Helvetica,sans-Serif" font-size="9.00">cli.py [778 LOC]</text>
</a>
</g>
</g>
<!-- src/import_cruiser/cli.py&#45;&gt;src/import_cruiser/analyzer.py -->
<g id="edge2" class="edge">
<title>src/import_cruiser/cli.py&#45;&gt;src/import_cruiser/analyzer.py</title>
<path fill="none" stroke="#000000" stroke-width="2" stroke-opacity="0.121569" d="M82.39,-86.27C92.46,-91.53 105.52,-98.03 117.5,-103 122.31,-105 127.44,-106.94 132.53,-108.77"/>
<polygon fill="#000000" fill-opacity="0.121569" stroke="#000000" stroke-width="2" stroke-opacity="0.121569" points="131.8,-110.74 138.16,-110.72 133.18,-106.77 131.8,-110.74"/>
</g>
<!-- src/import_cruiser/config.py -->
<g id="node3" class="node">
<title>src/import_cruiser/config.py</title>
<g id="a_node3"><a xlink:href="src/import_cruiser/config.py" xlink:title="config.py [46 LOC]">
<path fill="#ffffcc" stroke="black" d="M326.83,-48.88C326.83,-48.88 247.67,-48.88 247.67,-48.88 244.71,-48.88 241.75,-45.92 241.75,-42.96 241.75,-42.96 241.75,-37.04 241.75,-37.04 241.75,-34.08 244.71,-31.12 247.67,-31.12 247.67,-31.12 326.83,-31.12 326.83,-31.12 329.79,-31.12 332.75,-34.08 332.75,-37.04 332.75,-37.04 332.75,-42.96 332.75,-42.96 332.75,-45.92 329.79,-48.88 326.83,-48.88"/>
<text xml:space="preserve" text-anchor="start" x="249.75" y="-36.33" font-family="Helvetica,sans-Serif" font-size="9.00">config.py [46 LOC]</text>
</a>
</g>
</g>
<!-- src/import_cruiser/cli.py&#45;&gt;src/import_cruiser/config.py -->
<g id="edge3" class="edge">
<title>src/import_cruiser/cli.py&#45;&gt;src/import_cruiser/config.py</title>
<path fill="none" stroke="#000000" stroke-width="2" stroke-opacity="0.121569" d="M72.2,-67.96C81.25,-57.02 98.2,-39.17 117.5,-32 158.18,-16.9 208.21,-21.92 243.19,-28.86"/>
<polygon fill="#000000" fill-opacity="0.121569" stroke="#000000" stroke-width="2" stroke-opacity="0.121569" points="242.48,-30.85 248.78,-30.03 243.34,-26.74 242.48,-30.85"/>
</g>
<!-- src/import_cruiser/exporter.py -->
<g id="node5" class="node">
<title>src/import_cruiser/exporter.py</title>
<g id="a_node5"><a xlink:href="src/import_cruiser/exporter.py" xlink:title="exporter.py [1147 LOC]">
<path fill="#ffffcc" stroke="black" d="M220.58,-85.88C220.58,-85.88 123.42,-85.88 123.42,-85.88 120.46,-85.88 117.5,-82.92 117.5,-79.96 117.5,-79.96 117.5,-74.04 117.5,-74.04 117.5,-71.08 120.46,-68.12 123.42,-68.12 123.42,-68.12 220.58,-68.12 220.58,-68.12 223.54,-68.12 226.5,-71.08 226.5,-74.04 226.5,-74.04 226.5,-79.96 226.5,-79.96 226.5,-82.92 223.54,-85.88 220.58,-85.88"/>
<text xml:space="preserve" text-anchor="start" x="125.5" y="-73.33" font-family="Helvetica,sans-Serif" font-size="9.00">exporter.py [1147 LOC]</text>
</a>
</g>
</g>
<!-- src/import_cruiser/cli.py&#45;&gt;src/import_cruiser/exporter.py -->
<g id="edge4" class="edge">
<title>src/import_cruiser/cli.py&#45;&gt;src/import_cruiser/exporter.py</title>
<path fill="none" stroke="#000000" stroke-width="2" stroke-opacity="0.121569" d="M104.93,-77C106.05,-77 107.18,-77 108.31,-77"/>
<polygon fill="#000000" fill-opacity="0.121569" stroke="#000000" stroke-width="2" stroke-opacity="0.121569" points="108.08,-79.1 114.08,-77 108.08,-74.9 108.08,-79.1"/>
</g>
<!-- src/import_cruiser/cli.py&#45;&gt;src/import_cruiser/graph.py -->
<g id="edge5" class="edge">
<title>src/import_cruiser/cli.py&#45;&gt;src/import_cruiser/graph.py</title>
<path fill="none" stroke="#000000" stroke-width="2" stroke-opacity="0.121569" d="M93.17,-86.34C100.96,-88.58 109.49,-90.7 117.5,-92 154.83,-98.04 197.38,-99.77 230.41,-100"/>
<polygon fill="#000000" fill-opacity="0.121569" stroke="#000000" stroke-width="2" stroke-opacity="0.121569" points="230,-102.1 236,-100.02 230.01,-97.9 230,-102.1"/>
</g>
<!-- src/import_cruiser/validator.py -->
<g id="node7" class="node">
<title>src/import_cruiser/validator.py</title>
<g id="a_node7"><a xlink:href="src/import_cruiser/validator.py" xlink:title="validator.py [53 LOC]">
<path fill="#ffffcc" stroke="black" d="M216.83,-55.88C216.83,-55.88 127.17,-55.88 127.17,-55.88 124.21,-55.88 121.25,-52.92 121.25,-49.96 121.25,-49.96 121.25,-44.04 121.25,-44.04 121.25,-41.08 124.21,-38.12 127.17,-38.12 127.17,-38.12 216.83,-38.12 216.83,-38.12 219.79,-38.12 222.75,-41.08 222.75,-44.04 222.75,-44.04 222.75,-49.96 222.75,-49.96 222.75,-52.92 219.79,-55.88 216.83,-55.88"/>
<text xml:space="preserve" text-anchor="start" x="129.25" y="-43.33" font-family="Helvetica,sans-Serif" font-size="9.00">validator.py [53 LOC]</text>
</a>
</g>
</g>
<!-- src/import_cruiser/cli.py&#45;&gt;src/import_cruiser/validator.py -->
<g id="edge6" class="edge">
<title>src/import_cruiser/cli.py&#45;&gt;src/import_cruiser/validator.py</title>
<path fill="none" stroke="#000000" stroke-width="2" stroke-opacity="0.121569" d="M97.57,-67.69C104.16,-65.8 111.05,-63.83 117.5,-62 121.26,-60.93 125.16,-59.83 129.07,-58.73"/>
<polygon fill="#000000" fill-opacity="0.121569" stroke="#000000" stroke-width="2" stroke-opacity="0.121569" points="129.48,-60.8 134.69,-57.15 128.34,-56.75 129.48,-60.8"/>
</g>
<!-- src/import_cruiser/detector.py -->
<g id="node4" class="node">
<title>src/import_cruiser/detector.py</title>
<g id="a_node4"><a xlink:href="src/import_cruiser/detector.py" xlink:title="detector.py [4 LOC]">
<path fill="#ffffcc" stroke="black" d="M213.08,-159.88C213.08,-159.88 130.92,-159.88 130.92,-159.88 127.96,-159.88 125,-156.92 125,-153.96 125,-153.96 125,-148.04 125,-148.04 125,-145.08 127.96,-142.12 130.92,-142.12 130.92,-142.12 213.08,-142.12 213.08,-142.12 216.04,-142.12 219,-145.08 219,-148.04 219,-148.04 219,-153.96 219,-153.96 219,-156.92 216.04,-159.88 213.08,-159.88"/>
<text xml:space="preserve" text-anchor="start" x="133" y="-147.32" font-family="Helvetica,sans-Serif" font-size="9.00">detector.py [4 LOC]</text>
</a>
</g>
</g>
<!-- src/import_cruiser/detector.py&#45;&gt;src/import_cruiser/graph.py -->
<g id="edge7" class="edge">
<title>src/import_cruiser/detector.py&#45;&gt;src/import_cruiser/graph.py</title>
<path fill="none" stroke="#000000" stroke-width="2" stroke-opacity="0.121569" d="M211.45,-141.63C216.59,-139.97 221.73,-138.1 226.5,-136 240.48,-129.86 255.07,-120.88 266.33,-113.31"/>
<polygon fill="#000000" fill-opacity="0.121569" stroke="#000000" stroke-width="2" stroke-opacity="0.121569" points="267.3,-115.19 271.05,-110.06 264.92,-111.73 267.3,-115.19"/>
</g>
<!-- src/import_cruiser/exporter.py&#45;&gt;src/import_cruiser/graph.py -->
<g id="edge8" class="edge">
<title>src/import_cruiser/exporter.py&#45;&gt;src/import_cruiser/graph.py</title>
<path fill="none" stroke="#000000" stroke-width="2" stroke-opacity="0.121569" d="M221.03,-86.33C224.14,-86.93 227.28,-87.54 230.42,-88.15"/>
<polygon fill="#000000" fill-opacity="0.121569" stroke="#000000" stroke-width="2" stroke-opacity="0.121569" points="229.97,-90.21 236.26,-89.29 230.77,-86.08 229.97,-90.21"/>
</g>
<!-- src/import_cruiser/validator.py&#45;&gt;src/import_cruiser/config.py -->
<g id="edge9" class="edge">
<title>src/import_cruiser/validator.py&#45;&gt;src/import_cruiser/config.py</title>
<path fill="none" stroke="#000000" stroke-width="2" stroke-opacity="0.121569" d="M223,-43.91C226.18,-43.71 229.39,-43.51 232.58,-43.32"/>
<polygon fill="#000000" fill-opacity="0.121569" stroke="#000000" stroke-width="2" stroke-opacity="0.121569" points="232.63,-45.42 238.49,-42.95 232.37,-41.23 232.63,-45.42"/>
</g>
<!-- src/import_cruiser/validator.py&#45;&gt;src/import_cruiser/graph.py -->
<g id="edge10" class="edge">
<title>src/import_cruiser/validator.py&#45;&gt;src/import_cruiser/graph.py</title>
<path fill="none" stroke="#000000" stroke-width="2" stroke-opacity="0.121569" d="M211.45,-56.37C216.59,-58.03 221.73,-59.9 226.5,-62 240.48,-68.14 255.07,-77.12 266.33,-84.69"/>
<polygon fill="#000000" fill-opacity="0.121569" stroke="#000000" stroke-width="2" stroke-opacity="0.121569" points="264.92,-86.27 271.05,-87.94 267.3,-82.81 264.92,-86.27"/>
</g>
</g>
</svg>
