<?xml version="1.0" encoding="UTF-8" standalone="no"?>
<!DOCTYPE svg PUBLIC "-//W3C//DTD SVG 1.1//EN"
 "http://www.w3.org/Graphics/SVG/1.1/DTD/svg11.dtd">
<!-- Generated by graphviz version 13.0.1 (20250615.1724)
 -->
<!-- Title: import_cruiser Pages: 1 -->
<svg width="269pt" height="244pt"
 viewBox="-8.00 -8.00 269.00 244.00" xmlns="http://www.w3.org/2000/svg" xmlns:xlink="http://www.w3.org/1999/xlink">
<g id="graph0" class="graph" transform="scale(1 1) rotate(0) translate(4 224)">
<title>import_cruiser</title>
<polygon fill="white" stroke="none" points="-4,4 -4,-224 249.25,-224 249.25,4 -4,4"/>
<g id="clust1" class="cluster">
<title>cluster_src</title>
<path fill="#ffffff" stroke="black" stroke-width="2" d="M20,-8C20,-8 225.25,-8 225.25,-8 231.25,-8 237.25,-14 237.25,-20 237.25,-20 237.25,-200 237.25,-200 237.25,-206 231.25,-212 225.25,-212 225.25,-212 20,-212 20,-212 14,-212 8,-206 8,-200 8,-200 8,-20 8,-20 8,-14 14,-8 20,-8"/>
<text xml:space="preserve" text-anchor="middle" x="122.62" y="-199.45" font-family="Helvetica,sans-Serif" font-weight="bold" font-size="9.00">src</text>
</g>
<g id="clust2" class="cluster">
<title>cluster_src/import_cruiser</title>
<path fill="#ffffff" stroke="black" stroke-width="2" d="M28,-16C28,-16 217.25,-16 217.25,-16 223.25,-16 229.25,-22 229.25,-28 229.25,-28 229.25,-174 229.25,-174 229.25,-180 223.25,-186 217.25,-186 217.25,-186 28,-186 28,-186 22,-186 16,-180 16,-174 16,-174 16,-28 16,-28 16,-22 22,-16 28,-16"/>
<text xml:space="preserve" text-anchor="middle" x="122.62" y="-173.45" font-family="Helvetica,sans-Serif" font-weight="bold" font-size="9.00">import_cruiser</text>
</g>
<!-- src/import_cruiser/analyzer.py -->
<g id="node1" class="node">
<title>src/import_cruiser/analyzer.py</title>
<g id="a_node1"><a xlink:href="src/import_cruiser/analyzer.py" xlink:title="analyzer.py">
<path fill="#ffffcc" stroke="black" d="M148.33,-129.88C148.33,-129.88 96.92,-129.88 96.92,-129.88 93.96,-129.88 91,-126.92 91,-123.96 91,-123.96 91,-118.04 91,-118.04 91,-115.08 93.96,-112.12 96.92,-112.12 96.92,-112.12 148.33,-112.12 148.33,-112.12 151.29,-112.12 154.25,-115.08 154.25,-118.04 154.25,-118.04 154.25,-123.96 154.25,-123.96 154.25,-126.92 151.29,-129.88 148.33,-129.88"/>
<text xml:space="preserve" text-anchor="start" x="99" y="-117.33" font-family="Helvetica,sans-Serif" font-size="9.00">analyzer.py</text>
</a>
</g>
</g>
<!-- src/import_cruiser/graph.py -->
<g id="node6" class="node">
<title>src/import_cruiser/graph.py</title>
<g id="a_node6"><a xlink:href="src/import_cruiser/graph.py" xlink:title="graph.py">
<path fill="#ffffcc" stroke="black" d="M215.33,-107.88C215.33,-107.88 173.17,-107.88 173.17,-107.88 170.21,-107.88 167.25,-104.92 167.25,-101.96 167.25,-101.96 167.25,-96.04 167.25,-96.04 167.25,-93.08 170.21,-90.12 173.17,-90.12 173.17,-90.12 215.33,-90.12 215.33,-90.12 218.29,-90.12 221.25,-93.08 221.25,-96.04 221.25,-96.04 221.25,-101.96 221.25,-101.96 221.25,-104.92 218.29,-107.88 215.33,-107.88"/>
<text xml:space="preserve" text-anchor="start" x="176.25" y="-95.33" font-family="Helvetica,sans-Serif" font-size="9.00">graph.py</text>
</a>
</g>
</g>
<!-- src/import_cruiser/analyzer.py&#45;&gt;src/import_cruiser/graph.py -->
<g id="edge1" class="edge">
<title>src/import_cruiser/analyzer.py&#45;&gt;src/import_cruiser/graph.py</title>
<path fill="none" stroke="#000000" stroke-width="2" stroke-opacity="0.121569" d="M153.15,-111.67C155.02,-111.08 156.91,-110.48 158.79,-109.89"/>
<polygon fill="#000000" fill-opacity="0.121569" stroke="#000000" stroke-width="2" stroke-opacity="0.121569" points="159.01,-112.02 164.1,-108.21 157.75,-108.02 159.01,-112.02"/>
</g>
<!-- src/import_cruiser/cli.py -->
<g id="node2" class="node">
<title>src/import_cruiser/cli.py</title>
<g id="a_node2"><a xlink:href="src/import_cruiser/cli.py" xlink:title="cli.py">
<path fill="#ffffcc" stroke="black" d="M72.08,-85.88C72.08,-85.88 29.92,-85.88 29.92,-85.88 26.96,-85.88 24,-82.92 24,-79.96 24,-79.96 24,-74.04 24,-74.04 24,-71.08 26.96,-68.12 29.92,-68.12 29.92,-68.12 72.08,-68.12 72.08,-68.12 75.04,-68.12 78,-71.08 78,-74.04 78,-74.04 78,-79.96 78,-79.96 78,-82.92 75.04,-85.88 72.08,-85.88"/>
<text xml:space="preserve" text-anchor="start" x="40.5" y="-73.33" font-family="Helvetica,sans-Serif" font-size="9.00">cli.py</text>
</a>
</g>
</g>
<!-- src/import_cruiser/cli.py&#45;&gt;src/import_cruiser/analyzer.py -->
<g id="edge2" class="edge">
<title>src/import_cruiser/cli.py&#45;&gt;src/import_cruiser/analyzer.py</title>
<path fill="none" stroke="#000000" stroke-width="2" stroke-opacity="0.121569" d="M65.59,-86.34C73.03,-91.38 82.45,-97.64 91,-103 93.16,-104.35 95.41,-105.73 97.68,-107.1"/>
<polygon fill="#000000" fill-opacity="0.121569" stroke="#000000" stroke-width="2" stroke-opacity="0.121569" points="96.48,-108.83 102.71,-110.09 98.63,-105.22 96.48,-108.83"/>
</g>
<!-- src/import_cruiser/config.py -->
<g id="node3" class="node">
<title>src/import_cruiser/config.py</title>
<g id="a_node3"><a xlink:href="src/import_cruiser/config.py" xlink:title="config.py">
<path fill="#ffffcc" stroke="black" d="M215.33,-48.88C215.33,-48.88 173.17,-48.88 173.17,-48.88 170.21,-48.88 167.25,-45.92 167.25,-42.96 167.25,-42.96 167.25,-37.04 167.25,-37.04 167.25,-34.08 170.21,-31.12 173.17,-31.12 173.17,-31.12 215.33,-31.12 215.33,-31.12 218.29,-31.12 221.25,-34.08 221.25,-37.04 221.25,-37.04 221.25,-42.96 221.25,-42.96 221.25,-45.92 218.29,-48.88 215.33,-48.88"/>
<text xml:space="preserve" text-anchor="start" x="175.88" y="-36.33" font-family="Helvetica,sans-Serif" font-size="9.00">config.py</text>
</a>
</g>
</g>
<!-- src/import_cruiser/cli.py&#45;&gt;src/import_cruiser/config.py -->
<g id="edge3" class="edge">
<title>src/import_cruiser/cli.py&#45;&gt;src/import_cruiser/config.py</title>
<path fill="none" stroke="#000000" stroke-width="2" stroke-opacity="0.121569" d="M56.83,-67.65C63.06,-56.75 75.01,-39.3 91,-32 111.88,-22.46 137.66,-24.56 158.11,-28.99"/>
<polygon fill="#000000" fill-opacity="0.121569" stroke="#000000" stroke-width="2" stroke-opacity="0.121569" points="157.54,-31.02 163.87,-30.38 158.52,-26.93 157.54,-31.02"/>
</g>
<!-- src/import_cruiser/exporter.py -->
<g id="node5" class="node">
<title>src/import_cruiser/exporter.py</title>
<g id="a_node5"><a xlink:href="src/import_cruiser/exporter.py" xlink:title="exporter.py">
<path fill="#ffffcc" stroke="black" d="M147.58,-85.88C147.58,-85.88 97.67,-85.88 97.67,-85.88 94.71,-85.88 91.75,-82.92 91.75,-79.96 91.75,-79.96 91.75,-74.04 91.75,-74.04 91.75,-71.08 94.71,-68.12 97.67,-68.12 97.67,-68.12 147.58,-68.12 147.58,-68.12 150.54,-68.12 153.5,-71.08 153.5,-74.04 153.5,-74.04 153.5,-79.96 153.5,-79.96 153.5,-82.92 150.54,-85.88 147.58,-85.88"/>
<text xml:space="preserve" text-anchor="start" x="99.75" y="-73.33" font-family="Helvetica,sans-Serif" font-size="9.00">exporter.py</text>
</a>
</g>
</g>
<!-- src/import_cruiser/cli.py&#45;&gt;src/import_cruiser/exporter.py -->
<g id="edge4" class="edge">
<title>src/import_cruiser/cli.py&#45;&gt;src/import_cruiser/exporter.py</title>
<path fill="none" stroke="#000000" stroke-width="2" stroke-opacity="0.121569" d="M78.32,-77C79.8,-77 81.31,-77 82.82,-77"/>
<polygon fill="#000000" fill-opacity="0.121569" stroke="#000000" stroke-width="2" stroke-opacity="0.121569" points="82.5,-79.1 88.5,-77 82.5,-74.9 82.5,-79.1"/>
</g>
<!-- src/import_cruiser/cli.py&#45;&gt;src/import_cruiser/graph.py -->
<g id="edge5" class="edge">
<title>src/import_cruiser/cli.py&#45;&gt;src/import_cruiser/graph.py</title>
<path fill="none" stroke="#000000" stroke-width="2" stroke-opacity="0.121569" d="M72.69,-86.28C78.51,-88.52 84.91,-90.65 91,-92 112.9,-96.85 138.02,-98.62 157.88,-99.17"/>
<polygon fill="#000000" fill-opacity="0.121569" stroke="#000000" stroke-width="2" stroke-opacity="0.121569" points="157.82,-101.26 163.86,-99.28 157.9,-97.07 157.82,-101.26"/>
</g>
<!-- src/import_cruiser/validator.py -->
<g id="node7" class="node">
<title>src/import_cruiser/validator.py</title>
<g id="a_node7"><a xlink:href="src/import_cruiser/validator.py" xlink:title="validator.py">
<path fill="#ffffcc" stroke="black" d="M148.33,-55.88C148.33,-55.88 96.92,-55.88 96.92,-55.88 93.96,-55.88 91,-52.92 91,-49.96 91,-49.96 91,-44.04 91,-44.04 91,-41.08 93.96,-38.12 96.92,-38.12 96.92,-38.12 148.33,-38.12 148.33,-38.12 151.29,-38.12 154.25,-41.08 154.25,-44.04 154.25,-44.04 154.25,-49.96 154.25,-49.96 154.25,-52.92 151.29,-55.88 148.33,-55.88"/>
<text xml:space="preserve" text-anchor="start" x="99" y="-43.33" font-family="Helvetica,sans-Serif" font-size="9.00">validator.py</text>
</a>
</g>
</g>
<!-- src/import_cruiser/cli.py&#45;&gt;src/import_cruiser/validator.py -->
<g id="edge6" class="edge">
<title>src/import_cruiser/cli.py&#45;&gt;src/import_cruiser/validator.py</title>
<path fill="none" stroke="#000000" stroke-width="2" stroke-opacity="0.121569" d="M73.65,-67.67C79.47,-65.17 85.86,-62.41 92.03,-59.75"/>
<polygon fill="#000000" fill-opacity="0.121569" stroke="#000000" stroke-width="2" stroke-opacity="0.121569" points="92.77,-61.72 97.45,-57.42 91.11,-57.86 92.77,-61.72"/>
</g>
<!-- src/import_cruiser/detector.py -->
<g id="node4" class="node">
<title>src/import_cruiser/detector.py</title>
<g id="a_node4"><a xlink:href="src/import_cruiser/detector.py" xlink:title="detector.py">
<path fill="#ffffcc" stroke="black" d="M147.21,-159.88C147.21,-159.88 98.04,-159.88 98.04,-159.88 95.08,-159.88 92.12,-156.92 92.12,-153.96 92.12,-153.96 92.12,-148.04 92.12,-148.04 92.12,-145.08 95.08,-142.12 98.04,-142.12 98.04,-142.12 147.21,-142.12 147.21,-142.12 150.17,-142.12 153.12,-145.08 153.12,-148.04 153.12,-148.04 153.12,-153.96 153.12,-153.96 153.12,-156.92 150.17,-159.88 147.21,-159.88"/>
<text xml:space="preserve" text-anchor="start" x="100.12" y="-147.32" font-family="Helvetica,sans-Serif" font-size="9.00">detector.py</text>
</a>
</g>
</g>
<!-- src/import_cruiser/detector.py&#45;&gt;src/import_cruiser/graph.py -->
<g id="edge7" class="edge">
<title>src/import_cruiser/detector.py&#45;&gt;src/import_cruiser/graph.py</title>
<path fill="none" stroke="#000000" stroke-width="2" stroke-opacity="0.121569" d="M144.86,-141.65C148.1,-139.93 151.33,-138.03 154.25,-136 163.17,-129.8 172.04,-121.59 179.06,-114.48"/>
<polygon fill="#000000" fill-opacity="0.121569" stroke="#000000" stroke-width="2" stroke-opacity="0.121569" points="180.21,-116.32 182.84,-110.54 177.18,-113.41 180.21,-116.32"/>
</g>
<!-- src/import_cruiser/exporter.py&#45;&gt;src/import_cruiser/graph.py -->
<g id="edge8" class="edge">
<title>src/import_cruiser/exporter.py&#45;&gt;src/import_cruiser/graph.py</title>
<path fill="none" stroke="#000000" stroke-width="2" stroke-opacity="0.121569" d="M153.15,-86.33C155.02,-86.92 156.91,-87.52 158.79,-88.11"/>
<polygon fill="#000000" fill-opacity="0.121569" stroke="#000000" stroke-width="2" stroke-opacity="0.121569" points="157.75,-89.98 164.1,-89.79 159.01,-85.98 157.75,-89.98"/>
</g>
<!-- src/import_cruiser/validator.py&#45;&gt;src/import_cruiser/config.py -->
<g id="edge9" class="edge">
<title>src/import_cruiser/validator.py&#45;&gt;src/import_cruiser/config.py</title>
<path fill="none" stroke="#000000" stroke-width="2" stroke-opacity="0.121569" d="M154.37,-43.91C155.69,-43.78 157.02,-43.64 158.34,-43.51"/>
<polygon fill="#000000" fill-opacity="0.121569" stroke="#000000" stroke-width="2" stroke-opacity="0.121569" points="158.26,-45.63 164.02,-42.94 157.84,-41.45 158.26,-45.63"/>
</g>
<!-- src/import_cruiser/validator.py&#45;&gt;src/import_cruiser/graph.py -->
<g id="edge10" class="edge">
<title>src/import_cruiser/validator.py&#45;&gt;src/import_cruiser/graph.py</title>
<path fill="none" stroke="#000000" stroke-width="2" stroke-opacity="0.121569" d="M144.86,-56.35C148.1,-58.07 151.33,-59.97 154.25,-62 163.17,-68.2 172.04,-76.41 179.06,-83.52"/>
<polygon fill="#000000" fill-opacity="0.121569" stroke="#000000" stroke-width="2" stroke-opacity="0.121569" points="177.18,-84.59 182.84,-87.46 180.21,-81.68 177.18,-84.59"/>
</g>
</g>
</svg>
