<?xml version="1.0" encoding="UTF-8" standalone="no"?>
<!DOCTYPE svg PUBLIC "-//W3C//DTD SVG 1.1//EN"
 "http://www.w3.org/Graphics/SVG/1.1/DTD/svg11.dtd">
<!-- Generated by graphviz version 13.0.1 (20250615.1724)
 -->
<!-- Title: import_cruiser Pages: 1 -->
<svg width="388pt" height="334pt"
 viewBox="-8.00 -8.00 388.00 334.00" xmlns="http://www.w3.org/2000/svg" xmlns:xlink="http://www.w3.org/1999/xlink">
<g id="graph0" class="graph" transform="scale(1 1) rotate(0) translate(4 314)">
<title>import_cruiser</title>
<polygon fill="white" stroke="none" points="-4,4 -4,-314 368.25,-314 368.25,4 -4,4"/>
<g id="clust1" class="cluster">
<title>cluster___external_deps__</title>
<path fill="#ecfccb" stroke="#4d7c0f" d="M129.5,-8C129.5,-8 219.75,-8 219.75,-8 225.75,-8 231.75,-14 231.75,-20 231.75,-20 231.75,-78 231.75,-78 231.75,-84 225.75,-90 219.75,-90 219.75,-90 129.5,-90 129.5,-90 123.5,-90 117.5,-84 117.5,-78 117.5,-78 117.5,-20 117.5,-20 117.5,-14 123.5,-8 129.5,-8"/>
<text xml:space="preserve" text-anchor="middle" x="174.62" y="-77.45" font-family="Helvetica,sans-Serif" font-weight="bold" font-size="9.00" fill="#14532d">External dependencies</text>
</g>
<g id="clust2" class="cluster">
<title>cluster_src</title>
<path fill="#ffffff" stroke="black" stroke-width="2" d="M20,-98C20,-98 344.25,-98 344.25,-98 350.25,-98 356.25,-104 356.25,-110 356.25,-110 356.25,-290 356.25,-290 356.25,-296 350.25,-302 344.25,-302 344.25,-302 20,-302 20,-302 14,-302 8,-296 8,-290 8,-290 8,-110 8,-110 8,-104 14,-98 20,-98"/>
<text xml:space="preserve" text-anchor="middle" x="182.12" y="-289.45" font-family="Helvetica,sans-Serif" font-weight="bold" font-size="9.00">src [2867 LOC]</text>
</g>
<g id="clust3" class="cluster">
<title>cluster_src/import_cruiser</title>
<path fill="#ffffff" stroke="black" stroke-width="2" d="M28,-106C28,-106 336.25,-106 336.25,-106 342.25,-106 348.25,-112 348.25,-118 348.25,-118 348.25,-264 348.25,-264 348.25,-270 342.25,-276 336.25,-276 336.25,-276 28,-276 28,-276 22,-276 16,-270 16,-264 16,-264 16,-118 16,-118 16,-112 22,-106 28,-106"/>
<text xml:space="preserve" text-anchor="middle" x="182.12" y="-263.45" font-family="Helvetica,sans-Serif" font-weight="bold" font-size="9.00">import_cruiser [2867 LOC]</text>
</g>
<!-- src/import_cruiser/click -->
<g id="node1" class="node">
<title>src/import_cruiser/click</title>
<g id="a_node1"><a xlink:href="click" xlink:title="click">
<path fill="#dcfce7" stroke="#15803d" stroke-width="1.4" d="M195.21,-33.88C195.21,-33.88 153.04,-33.88 153.04,-33.88 150.08,-33.88 147.12,-30.92 147.12,-27.96 147.12,-27.96 147.12,-22.04 147.12,-22.04 147.12,-19.08 150.08,-16.12 153.04,-16.12 153.04,-16.12 195.21,-16.12 195.21,-16.12 198.17,-16.12 201.12,-19.08 201.12,-22.04 201.12,-22.04 201.12,-27.96 201.12,-27.96 201.12,-30.92 198.17,-33.88 195.21,-33.88"/>
<text xml:space="preserve" text-anchor="start" x="165.12" y="-21.32" font-family="Helvetica,sans-Serif" font-size="9.00" fill="#14532d">click</text>
</a>
</g>
</g>
<!-- src/import_cruiser/analyzer.py -->
<g id="node2" class="node">
<title>src/import_cruiser/analyzer.py</title>
<g id="a_node2"><a xlink:href="src/import_cruiser/analyzer.py" xlink:title="analyzer.py [366 LOC]">
<path fill="#ffffcc" stroke="black" d="M221.58,-219.88C221.58,-219.88 126.67,-219.88 126.67,-219.88 123.71,-219.88 120.75,-216.92 120.75,-213.96 120.75,-213.96 120.75,-208.04 120.75,-208.04 120.75,-205.08 123.71,-202.12 126.67,-202.12 126.67,-202.12 221.58,-202.12 221.58,-202.12 224.54,-202.12 227.5,-205.08 227.5,-208.04 227.5,-208.04 227.5,-213.96 227.5,-213.96 227.5,-216.92 224.54,-219.88 221.58,-219.88"/>
<text xml:space="preserve" text-anchor="start" x="128.75" y="-207.32" font-family="Helvetica,sans-Serif" font-size="9.00">analyzer.py [366 LOC]</text>
</a>
</g>
</g>
<!-- src/import_cruiser/graph.py -->
<g id="node7" class="node">
<title>src/import_cruiser/graph.py</title>
<g id="a_node7"><a xlink:href="src/import_cruiser/graph.py" xlink:title="graph.py [299 LOC]">
<path fill="#ffffcc" stroke="black" d="M334.33,-197.88C334.33,-197.88 250.67,-197.88 250.67,-197.88 247.71,-197.88 244.75,-194.92 244.75,-191.96 244.75,-191.96 244.75,-186.04 244.75,-186.04 244.75,-183.08 247.71,-180.12 250.67,-180.12 250.67,-180.12 334.33,-180.12 334.33,-180.12 337.29,-180.12 340.25,-183.08 340.25,-186.04 340.25,-186.04 340.25,-191.96 340.25,-191.96 340.25,-194.92 337.29,-197.88 334.33,-197.88"/>
<text xml:space="preserve" text-anchor="start" x="252.75" y="-185.32" font-family="Helvetica,sans-Serif" font-size="9.00">graph.py [299 LOC]</text>
</a>
</g>
</g>
<!-- src/import_cruiser/analyzer.py&#45;&gt;src/import_cruiser/graph.py -->
<g id="edge1" class="edge">
<title>src/import_cruiser/analyzer.py&#45;&gt;src/import_cruiser/graph.py</title>
<path fill="none" stroke="#000000" stroke-width="2" stroke-opacity="0.121569" d="M224.48,-201.67C228.17,-200.97 231.91,-200.26 235.64,-199.56"/>
<polygon fill="#000000" fill-opacity="0.121569" stroke="#000000" stroke-width="2" stroke-opacity="0.121569" points="235.81,-201.66 241.32,-198.49 235.03,-197.54 235.81,-201.66"/>
</g>
<!-- src/import_cruiser/cli.py -->
<g id="node3" class="node">
<title>src/import_cruiser/cli.py</title>
<g id="a_node3"><a xlink:href="src/import_cruiser/cli.py" xlink:title="cli.py [903 LOC]">
<path fill="#ffffcc" stroke="black" d="M98.58,-145.88C98.58,-145.88 29.92,-145.88 29.92,-145.88 26.96,-145.88 24,-142.92 24,-139.96 24,-139.96 24,-134.04 24,-134.04 24,-131.08 26.96,-128.12 29.92,-128.12 29.92,-128.12 98.58,-128.12 98.58,-128.12 101.54,-128.12 104.5,-131.08 104.5,-134.04 104.5,-134.04 104.5,-139.96 104.5,-139.96 104.5,-142.92 101.54,-145.88 98.58,-145.88"/>
<text xml:space="preserve" text-anchor="start" x="32" y="-133.32" font-family="Helvetica,sans-Serif" font-size="9.00">cli.py [903 LOC]</text>
</a>
</g>
</g>
<!-- src/import_cruiser/cli.py&#45;&gt;src/import_cruiser/click -->
<g id="edge2" class="edge">
<title>src/import_cruiser/cli.py&#45;&gt;src/import_cruiser/click</title>
<path fill="none" stroke="#000000" stroke-width="2" stroke-opacity="0.121569" d="M67.59,-127.65C72.94,-108.23 87.97,-63.4 117.5,-40 123.42,-35.31 130.68,-32.08 137.98,-29.86"/>
<polygon fill="#000000" fill-opacity="0.121569" stroke="#000000" stroke-width="2" stroke-opacity="0.121569" points="138.26,-31.96 143.56,-28.44 137.22,-27.89 138.26,-31.96"/>
</g>
<!-- src/import_cruiser/cli.py&#45;&gt;src/import_cruiser/analyzer.py -->
<g id="edge3" class="edge">
<title>src/import_cruiser/cli.py&#45;&gt;src/import_cruiser/analyzer.py</title>
<path fill="none" stroke="#000000" stroke-width="2" stroke-opacity="0.121569" d="M71.58,-146.31C80.46,-158.68 97.75,-180.44 117.5,-193 120.58,-194.96 123.9,-196.73 127.32,-198.31"/>
<polygon fill="#000000" fill-opacity="0.121569" stroke="#000000" stroke-width="2" stroke-opacity="0.121569" points="126.3,-200.16 132.65,-200.53 127.92,-196.29 126.3,-200.16"/>
</g>
<!-- src/import_cruiser/config.py -->
<g id="node4" class="node">
<title>src/import_cruiser/config.py</title>
<g id="a_node4"><a xlink:href="src/import_cruiser/config.py" xlink:title="config.py [46 LOC]">
<path fill="#ffffcc" stroke="black" d="M332.08,-138.88C332.08,-138.88 252.92,-138.88 252.92,-138.88 249.96,-138.88 247,-135.92 247,-132.96 247,-132.96 247,-127.04 247,-127.04 247,-124.08 249.96,-121.12 252.92,-121.12 252.92,-121.12 332.08,-121.12 332.08,-121.12 335.04,-121.12 338,-124.08 338,-127.04 338,-127.04 338,-132.96 338,-132.96 338,-135.92 335.04,-138.88 332.08,-138.88"/>
<text xml:space="preserve" text-anchor="start" x="255" y="-126.33" font-family="Helvetica,sans-Serif" font-size="9.00">config.py [46 LOC]</text>
</a>
</g>
</g>
<!-- src/import_cruiser/cli.py&#45;&gt;src/import_cruiser/config.py -->
<g id="edge4" class="edge">
<title>src/import_cruiser/cli.py&#45;&gt;src/import_cruiser/config.py</title>
<path fill="none" stroke="#000000" stroke-width="2" stroke-opacity="0.121569" d="M92.33,-127.67C100.33,-125.34 109.18,-123.17 117.5,-122 157.5,-116.37 203.12,-118.79 237.62,-122.4"/>
<polygon fill="#000000" fill-opacity="0.121569" stroke="#000000" stroke-width="2" stroke-opacity="0.121569" points="237.38,-124.49 243.58,-123.06 237.84,-120.31 237.38,-124.49"/>
</g>
<!-- src/import_cruiser/exporter.py -->
<g id="node6" class="node">
<title>src/import_cruiser/exporter.py</title>
<g id="a_node6"><a xlink:href="src/import_cruiser/exporter.py" xlink:title="exporter.py [1196 LOC]">
<path fill="#ffffcc" stroke="black" d="M222.71,-175.88C222.71,-175.88 125.54,-175.88 125.54,-175.88 122.58,-175.88 119.62,-172.92 119.62,-169.96 119.62,-169.96 119.62,-164.04 119.62,-164.04 119.62,-161.08 122.58,-158.12 125.54,-158.12 125.54,-158.12 222.71,-158.12 222.71,-158.12 225.67,-158.12 228.62,-161.08 228.62,-164.04 228.62,-164.04 228.62,-169.96 228.62,-169.96 228.62,-172.92 225.67,-175.88 222.71,-175.88"/>
<text xml:space="preserve" text-anchor="start" x="127.62" y="-163.32" font-family="Helvetica,sans-Serif" font-size="9.00">exporter.py [1196 LOC]</text>
</a>
</g>
</g>
<!-- src/import_cruiser/cli.py&#45;&gt;src/import_cruiser/exporter.py -->
<g id="edge5" class="edge">
<title>src/import_cruiser/cli.py&#45;&gt;src/import_cruiser/exporter.py</title>
<path fill="none" stroke="#000000" stroke-width="2" stroke-opacity="0.121569" d="M97.56,-146.36C104.15,-148.25 111.04,-150.2 117.5,-152 121.45,-153.1 125.56,-154.23 129.67,-155.36"/>
<polygon fill="#000000" fill-opacity="0.121569" stroke="#000000" stroke-width="2" stroke-opacity="0.121569" points="128.83,-157.3 135.17,-156.85 129.93,-153.25 128.83,-157.3"/>
</g>
<!-- src/import_cruiser/cli.py&#45;&gt;src/import_cruiser/graph.py -->
<g id="edge6" class="edge">
<title>src/import_cruiser/cli.py&#45;&gt;src/import_cruiser/graph.py</title>
<path fill="none" stroke="#000000" stroke-width="2" stroke-opacity="0.121569" d="M72.57,-146.3C81.74,-157.14 98.57,-174.53 117.5,-182 138.24,-190.18 192.85,-191.26 235.41,-190.7"/>
<polygon fill="#000000" fill-opacity="0.121569" stroke="#000000" stroke-width="2" stroke-opacity="0.121569" points="235.3,-192.8 241.27,-190.61 235.23,-188.6 235.3,-192.8"/>
</g>
<!-- src/import_cruiser/validator.py -->
<g id="node8" class="node">
<title>src/import_cruiser/validator.py</title>
<g id="a_node8"><a xlink:href="src/import_cruiser/validator.py" xlink:title="validator.py [53 LOC]">
<path fill="#ffffcc" stroke="black" d="M218.96,-145.88C218.96,-145.88 129.29,-145.88 129.29,-145.88 126.33,-145.88 123.38,-142.92 123.38,-139.96 123.38,-139.96 123.38,-134.04 123.38,-134.04 123.38,-131.08 126.33,-128.12 129.29,-128.12 129.29,-128.12 218.96,-128.12 218.96,-128.12 221.92,-128.12 224.88,-131.08 224.88,-134.04 224.88,-134.04 224.88,-139.96 224.88,-139.96 224.88,-142.92 221.92,-145.88 218.96,-145.88"/>
<text xml:space="preserve" text-anchor="start" x="131.38" y="-133.32" font-family="Helvetica,sans-Serif" font-size="9.00">validator.py [53 LOC]</text>
</a>
</g>
</g>
<!-- src/import_cruiser/cli.py&#45;&gt;src/import_cruiser/validator.py -->
<g id="edge7" class="edge">
<title>src/import_cruiser/cli.py&#45;&gt;src/import_cruiser/validator.py</title>
<path fill="none" stroke="#000000" stroke-width="2" stroke-opacity="0.121569" d="M104.81,-137C107.84,-137 110.95,-137 114.08,-137"/>
<polygon fill="#000000" fill-opacity="0.121569" stroke="#000000" stroke-width="2" stroke-opacity="0.121569" points="113.89,-139.1 119.89,-137 113.89,-134.9 113.89,-139.1"/>
</g>
<!-- src/import_cruiser/tomli -->
<g id="node9" class="node">
<title>src/import_cruiser/tomli</title>
<g id="a_node9"><a xlink:href="tomli" xlink:title="tomli">
<path fill="#dcfce7" stroke="#15803d" stroke-width="1.4" d="M195.21,-63.88C195.21,-63.88 153.04,-63.88 153.04,-63.88 150.08,-63.88 147.12,-60.92 147.12,-57.96 147.12,-57.96 147.12,-52.04 147.12,-52.04 147.12,-49.08 150.08,-46.12 153.04,-46.12 153.04,-46.12 195.21,-46.12 195.21,-46.12 198.17,-46.12 201.12,-49.08 201.12,-52.04 201.12,-52.04 201.12,-57.96 201.12,-57.96 201.12,-60.92 198.17,-63.88 195.21,-63.88"/>
<text xml:space="preserve" text-anchor="start" x="164.38" y="-51.33" font-family="Helvetica,sans-Serif" font-size="9.00" fill="#14532d">tomli</text>
</a>
</g>
</g>
<!-- src/import_cruiser/cli.py&#45;&gt;src/import_cruiser/tomli -->
<g id="edge8" class="edge">
<title>src/import_cruiser/cli.py&#45;&gt;src/import_cruiser/tomli</title>
<path fill="none" stroke="#000000" stroke-width="2" stroke-opacity="0.121569" d="M77.21,-127.91C95.74,-113.82 131.57,-86.59 153.81,-69.68"/>
<polygon fill="#000000" fill-opacity="0.121569" stroke="#000000" stroke-width="2" stroke-opacity="0.121569" points="154.87,-71.52 158.37,-66.21 152.33,-68.17 154.87,-71.52"/>
</g>
<!-- src/import_cruiser/detector.py -->
<g id="node5" class="node">
<title>src/import_cruiser/detector.py</title>
<g id="a_node5"><a xlink:href="src/import_cruiser/detector.py" xlink:title="detector.py [4 LOC]">
<path fill="#ffffcc" stroke="black" d="M215.21,-249.88C215.21,-249.88 133.04,-249.88 133.04,-249.88 130.08,-249.88 127.12,-246.92 127.12,-243.96 127.12,-243.96 127.12,-238.04 127.12,-238.04 127.12,-235.08 130.08,-232.12 133.04,-232.12 133.04,-232.12 215.21,-232.12 215.21,-232.12 218.17,-232.12 221.12,-235.08 221.12,-238.04 221.12,-238.04 221.12,-243.96 221.12,-243.96 221.12,-246.92 218.17,-249.88 215.21,-249.88"/>
<text xml:space="preserve" text-anchor="start" x="135.12" y="-237.32" font-family="Helvetica,sans-Serif" font-size="9.00">detector.py [4 LOC]</text>
</a>
</g>
</g>
<!-- src/import_cruiser/detector.py&#45;&gt;src/import_cruiser/graph.py -->
<g id="edge9" class="edge">
<title>src/import_cruiser/detector.py&#45;&gt;src/import_cruiser/graph.py</title>
<path fill="none" stroke="#000000" stroke-width="2" stroke-opacity="0.121569" d="M216.14,-231.68C221.47,-230.02 226.8,-228.13 231.75,-226 245.95,-219.88 260.74,-210.75 272.05,-203.09"/>
<polygon fill="#000000" fill-opacity="0.121569" stroke="#000000" stroke-width="2" stroke-opacity="0.121569" points="273.05,-204.95 276.79,-199.81 270.66,-201.5 273.05,-204.95"/>
</g>
<!-- src/import_cruiser/exporter.py&#45;&gt;src/import_cruiser/graph.py -->
<g id="edge10" class="edge">
<title>src/import_cruiser/exporter.py&#45;&gt;src/import_cruiser/graph.py</title>
<path fill="none" stroke="#000000" stroke-width="2" stroke-opacity="0.121569" d="M224.48,-176.33C228.17,-177.03 231.91,-177.74 235.64,-178.44"/>
<polygon fill="#000000" fill-opacity="0.121569" stroke="#000000" stroke-width="2" stroke-opacity="0.121569" points="235.03,-180.46 241.32,-179.51 235.81,-176.34 235.03,-180.46"/>
</g>
<!-- src/import_cruiser/validator.py&#45;&gt;src/import_cruiser/config.py -->
<g id="edge11" class="edge">
<title>src/import_cruiser/validator.py&#45;&gt;src/import_cruiser/config.py</title>
<path fill="none" stroke="#000000" stroke-width="2" stroke-opacity="0.121569" d="M225.15,-133.99C229.4,-133.74 233.7,-133.48 237.97,-133.22"/>
<polygon fill="#000000" fill-opacity="0.121569" stroke="#000000" stroke-width="2" stroke-opacity="0.121569" points="237.77,-135.34 243.63,-132.88 237.52,-131.14 237.77,-135.34"/>
</g>
<!-- src/import_cruiser/validator.py&#45;&gt;src/import_cruiser/graph.py -->
<g id="edge12" class="edge">
<title>src/import_cruiser/validator.py&#45;&gt;src/import_cruiser/graph.py</title>
<path fill="none" stroke="#000000" stroke-width="2" stroke-opacity="0.121569" d="M216.14,-146.32C221.47,-147.98 226.8,-149.87 231.75,-152 245.95,-158.12 260.74,-167.25 272.05,-174.91"/>
<polygon fill="#000000" fill-opacity="0.121569" stroke="#000000" stroke-width="2" stroke-opacity="0.121569" points="270.66,-176.5 276.79,-178.19 273.05,-173.05 270.66,-176.5"/>
</g>
</g>
</svg>
