<?xml version="1.0" encoding="UTF-8" standalone="no"?>
<!DOCTYPE svg PUBLIC "-//W3C//DTD SVG 1.1//EN"
 "http://www.w3.org/Graphics/SVG/1.1/DTD/svg11.dtd">
<!-- Generated by graphviz version 13.0.1 (20250615.1724)
 -->
<!-- Title: import_cruiser Pages: 1 -->
<svg width="722pt" height="544pt"
 viewBox="17.00 17.00 697.00 519.00" xmlns="http://www.w3.org/2000/svg" xmlns:xlink="http://www.w3.org/1999/xlink">
<g id="graph0" class="graph" transform="scale(1 1) rotate(0) translate(50.4 477.9)">
<title>import_cruiser</title>
<polygon fill="white" stroke="none" points="-25.2,25.2 -25.2,-452.7 630.2,-452.7 630.2,25.2 -25.2,25.2"/>
<g id="clust1" class="cluster cluster_key_src">
<title>cluster_src</title>
<path fill="white" stroke="black" d="M20,-8C20,-8 585,-8 585,-8 591,-8 597,-14 597,-20 597,-20 597,-407.5 597,-407.5 597,-413.5 591,-419.5 585,-419.5 585,-419.5 20,-419.5 20,-419.5 14,-419.5 8,-413.5 8,-407.5 8,-407.5 8,-20 8,-20 8,-14 14,-8 20,-8"/>
<text xml:space="preserve" text-anchor="middle" x="302.5" y="-406.95" font-family="Helvetica,sans-Serif" font-size="9.00">src</text>
</g>
<g id="clust2" class="cluster cluster_key_src_import_cruiser">
<title>cluster_src_import_cruiser</title>
<path fill="white" stroke="black" d="M60,-48C60,-48 505,-48 505,-48 511,-48 517,-54 517,-60 517,-60 517,-349.75 517,-349.75 517,-355.75 511,-361.75 505,-361.75 505,-361.75 60,-361.75 60,-361.75 54,-361.75 48,-355.75 48,-349.75 48,-349.75 48,-60 48,-60 48,-54 54,-48 60,-48"/>
<text xml:space="preserve" text-anchor="middle" x="282.5" y="-349.2" font-family="Helvetica,sans-Serif" font-size="9.00">import_cruiser</text>
</g>
<!-- __cluster_anchor_src -->
<!-- import_cruiser.analyzer -->
<g id="node2" class="node node_cluster_src_import_cruiser">
<title>import_cruiser.analyzer</title>
<g id="a_node2"><a xlink:title="/Users/kevin/.codex/worktrees/ae68/pydepend/src/import_cruiser/analyzer.py">
<path fill="#dff3f8" stroke="#2f2f2f" d="M375.75,-214C375.75,-214 334.25,-214 334.25,-214 328.25,-214 322.25,-208 322.25,-202 322.25,-202 322.25,-190 322.25,-190 322.25,-184 328.25,-178 334.25,-178 334.25,-178 375.75,-178 375.75,-178 381.75,-178 387.75,-184 387.75,-190 387.75,-190 387.75,-202 387.75,-202 387.75,-208 381.75,-214 375.75,-214"/>
<text xml:space="preserve" text-anchor="middle" x="355" y="-192.12" font-family="Helvetica,sans-Serif" font-size="10.00">analyzer.py</text>
</a>
</g>
</g>
<!-- import_cruiser.graph -->
<g id="node7" class="node node_cluster_src_import_cruiser">
<title>import_cruiser.graph</title>
<g id="a_node7"><a xlink:title="/Users/kevin/.codex/worktrees/ae68/pydepend/src/import_cruiser/graph.py">
<path fill="#dff3f8" stroke="#2f2f2f" d="M311,-124C311,-124 281,-124 281,-124 275,-124 269,-118 269,-112 269,-112 269,-100 269,-100 269,-94 275,-88 281,-88 281,-88 311,-88 311,-88 317,-88 323,-94 323,-100 323,-100 323,-112 323,-112 323,-118 317,-124 311,-124"/>
<text xml:space="preserve" text-anchor="middle" x="296" y="-102.12" font-family="Helvetica,sans-Serif" font-size="10.00">graph.py</text>
</a>
</g>
</g>
<!-- import_cruiser.analyzer&#45;&gt;import_cruiser.graph -->
<g id="edge1" class="edge">
<title>import_cruiser.analyzer&#45;&gt;import_cruiser.graph</title>
<path fill="none" stroke="#b0b0b0" d="M348.78,-177.75C340.02,-152.33 334.99,-139.92 327.04,-130.42"/>
<polygon fill="#b0b0b0" stroke="#b0b0b0" points="329,-128.93 322.38,-125.58 325.47,-132.32 329,-128.93"/>
</g>
<!-- import_cruiser.cli -->
<g id="node3" class="node node_cluster_src_import_cruiser">
<title>import_cruiser.cli</title>
<g id="a_node3"><a xlink:title="/Users/kevin/.codex/worktrees/ae68/pydepend/src/import_cruiser/cli.py">
<path fill="#dff3f8" stroke="#2f2f2f" d="M253,-304C253,-304 223,-304 223,-304 217,-304 211,-298 211,-292 211,-292 211,-280 211,-280 211,-274 217,-268 223,-268 223,-268 253,-268 253,-268 259,-268 265,-274 265,-280 265,-280 265,-292 265,-292 265,-298 259,-304 253,-304"/>
<text xml:space="preserve" text-anchor="middle" x="238" y="-282.12" font-family="Helvetica,sans-Serif" font-size="10.00">cli.py</text>
</a>
</g>
</g>
<!-- import_cruiser.cli&#45;&gt;import_cruiser.analyzer -->
<g id="edge2" class="edge">
<title>import_cruiser.cli&#45;&gt;import_cruiser.analyzer</title>
<path fill="none" stroke="#b0b0b0" d="M265.14,-277.08C288.57,-268.23 299.93,-258.15 333.28,-220.64"/>
<polygon fill="#b0b0b0" stroke="#b0b0b0" points="335.02,-222.37 337.83,-215.51 331.35,-219.12 335.02,-222.37"/>
</g>
<!-- import_cruiser.config -->
<g id="node4" class="node node_cluster_src_import_cruiser">
<title>import_cruiser.config</title>
<g id="a_node4"><a xlink:title="/Users/kevin/.codex/worktrees/ae68/pydepend/src/import_cruiser/config.py">
<path fill="#dff3f8" stroke="#2f2f2f" d="M147.88,-124C147.88,-124 116.12,-124 116.12,-124 110.12,-124 104.12,-118 104.12,-112 104.12,-112 104.12,-100 104.12,-100 104.12,-94 110.12,-88 116.12,-88 116.12,-88 147.88,-88 147.88,-88 153.88,-88 159.88,-94 159.88,-100 159.88,-100 159.88,-112 159.88,-112 159.88,-118 153.88,-124 147.88,-124"/>
<text xml:space="preserve" text-anchor="middle" x="132" y="-102.12" font-family="Helvetica,sans-Serif" font-size="10.00">config.py</text>
</a>
</g>
</g>
<!-- import_cruiser.cli&#45;&gt;import_cruiser.config -->
<g id="edge3" class="edge">
<title>import_cruiser.cli&#45;&gt;import_cruiser.config</title>
<path fill="none" stroke="#b0b0b0" d="M219.95,-267.55C153.32,-199.29 144.3,-186.56 135.83,-132.5"/>
<polygon fill="#b0b0b0" stroke="#b0b0b0" points="138.27,-132.26 134.81,-125.71 133.43,-132.99 138.27,-132.26"/>
</g>
<!-- import_cruiser.exporter -->
<g id="node6" class="node node_cluster_src_import_cruiser">
<title>import_cruiser.exporter</title>
<g id="a_node6"><a xlink:title="/Users/kevin/.codex/worktrees/ae68/pydepend/src/import_cruiser/exporter.py">
<path fill="#dff3f8" stroke="#2f2f2f" d="M258,-214C258,-214 218,-214 218,-214 212,-214 206,-208 206,-202 206,-202 206,-190 206,-190 206,-184 212,-178 218,-178 218,-178 258,-178 258,-178 264,-178 270,-184 270,-190 270,-190 270,-202 270,-202 270,-208 264,-214 258,-214"/>
<text xml:space="preserve" text-anchor="middle" x="238" y="-192.12" font-family="Helvetica,sans-Serif" font-size="10.00">exporter.py</text>
</a>
</g>
</g>
<!-- import_cruiser.cli&#45;&gt;import_cruiser.exporter -->
<g id="edge4" class="edge">
<title>import_cruiser.cli&#45;&gt;import_cruiser.exporter</title>
<path fill="none" stroke="#b0b0b0" d="M230.3,-267.73C224.11,-251.55 223.99,-242.98 229.92,-222.09"/>
<polygon fill="#b0b0b0" stroke="#b0b0b0" points="232.2,-223.02 231.85,-215.61 227.51,-221.63 232.2,-223.02"/>
</g>
<!-- import_cruiser.cli&#45;&gt;import_cruiser.graph -->
<g id="edge5" class="edge">
<title>import_cruiser.cli&#45;&gt;import_cruiser.graph</title>
<path fill="none" stroke="#b0b0b0" d="M237.19,-267.72C233.92,-190.95 236.14,-177.37 274.82,-130.88"/>
<polygon fill="#b0b0b0" stroke="#b0b0b0" points="276.65,-132.5 279.28,-125.57 272.9,-129.35 276.65,-132.5"/>
</g>
<!-- import_cruiser.validator -->
<g id="node8" class="node node_cluster_src_import_cruiser">
<title>import_cruiser.validator</title>
<g id="a_node8"><a xlink:title="/Users/kevin/.codex/worktrees/ae68/pydepend/src/import_cruiser/validator.py">
<path fill="#dff3f8" stroke="#2f2f2f" d="M168.75,-214C168.75,-214 127.25,-214 127.25,-214 121.25,-214 115.25,-208 115.25,-202 115.25,-202 115.25,-190 115.25,-190 115.25,-184 121.25,-178 127.25,-178 127.25,-178 168.75,-178 168.75,-178 174.75,-178 180.75,-184 180.75,-190 180.75,-190 180.75,-202 180.75,-202 180.75,-208 174.75,-214 168.75,-214"/>
<text xml:space="preserve" text-anchor="middle" x="148" y="-192.12" font-family="Helvetica,sans-Serif" font-size="10.00">validator.py</text>
</a>
</g>
</g>
<!-- import_cruiser.cli&#45;&gt;import_cruiser.validator -->
<g id="edge6" class="edge">
<title>import_cruiser.cli&#45;&gt;import_cruiser.validator</title>
<path fill="none" stroke="#b0b0b0" d="M210.68,-270.63C178.2,-251.93 168.83,-243.61 158.71,-221.81"/>
<polygon fill="#b0b0b0" stroke="#b0b0b0" points="161.05,-221.03 155.98,-215.61 156.56,-223.01 161.05,-221.03"/>
</g>
<!-- import_cruiser.detector -->
<g id="node5" class="node node_cluster_src_import_cruiser">
<title>import_cruiser.detector</title>
<g id="a_node5"><a xlink:title="/Users/kevin/.codex/worktrees/ae68/pydepend/src/import_cruiser/detector.py">
<path fill="#dff3f8" stroke="#2f2f2f" d="M465,-214C465,-214 425,-214 425,-214 419,-214 413,-208 413,-202 413,-202 413,-190 413,-190 413,-184 419,-178 425,-178 425,-178 465,-178 465,-178 471,-178 477,-184 477,-190 477,-190 477,-202 477,-202 477,-208 471,-214 465,-214"/>
<text xml:space="preserve" text-anchor="middle" x="445" y="-192.12" font-family="Helvetica,sans-Serif" font-size="10.00">detector.py</text>
</a>
</g>
</g>
<!-- import_cruiser.detector&#45;&gt;import_cruiser.graph -->
<g id="edge7" class="edge">
<title>import_cruiser.detector&#45;&gt;import_cruiser.graph</title>
<path fill="none" stroke="#b0b0b0" d="M431.93,-177.78C400.63,-134.75 389.57,-126.95 331.41,-113.71"/>
<polygon fill="#b0b0b0" stroke="#b0b0b0" points="332.13,-111.36 324.76,-112.22 331.06,-116.14 332.13,-111.36"/>
</g>
<!-- import_cruiser.exporter&#45;&gt;import_cruiser.graph -->
<g id="edge8" class="edge">
<title>import_cruiser.exporter&#45;&gt;import_cruiser.graph</title>
<path fill="none" stroke="#b0b0b0" d="M243.38,-177.58C251,-151.96 255.53,-139.96 264.33,-130.16"/>
<polygon fill="#b0b0b0" stroke="#b0b0b0" points="266.02,-131.94 269.34,-125.3 262.61,-128.42 266.02,-131.94"/>
</g>
<!-- import_cruiser.validator&#45;&gt;import_cruiser.config -->
<g id="edge9" class="edge">
<title>import_cruiser.validator&#45;&gt;import_cruiser.config</title>
<path fill="none" stroke="#b0b0b0" d="M139.09,-177.5C128.66,-155.43 125.49,-145.83 126.73,-132.6"/>
<polygon fill="#b0b0b0" stroke="#b0b0b0" points="129.14,-133.04 127.73,-125.76 124.29,-132.33 129.14,-133.04"/>
</g>
<!-- import_cruiser.validator&#45;&gt;import_cruiser.graph -->
<g id="edge10" class="edge">
<title>import_cruiser.validator&#45;&gt;import_cruiser.graph</title>
<path fill="none" stroke="#b0b0b0" d="M160.93,-177.76C190.59,-136.59 201.68,-128.94 260.68,-114.39"/>
<polygon fill="#b0b0b0" stroke="#b0b0b0" points="261.23,-116.78 267.45,-112.74 260.07,-112.02 261.23,-116.78"/>
</g>
</g>
</svg>
