<?xml version="1.0" encoding="UTF-8" standalone="no"?>
<!DOCTYPE svg PUBLIC "-//W3C//DTD SVG 1.1//EN"
 "http://www.w3.org/Graphics/SVG/1.1/DTD/svg11.dtd">
<!-- Generated by graphviz version 13.0.1 (20250615.1724)
 -->
<!-- Title: import_cruiser Pages: 1 -->
<svg width="369pt" height="270pt"
 viewBox="-8.00 -8.00 369.00 270.00" xmlns="http://www.w3.org/2000/svg" xmlns:xlink="http://www.w3.org/1999/xlink">
<g id="graph0" class="graph" transform="scale(1 1) rotate(0) translate(4 250)">
<title>import_cruiser</title>
<polygon fill="white" stroke="none" points="-4,4 -4,-250 348.5,-250 348.5,4 -4,4"/>
<g id="clust1" class="cluster">
<title>cluster_import_cruiser</title>
<path fill="#ffffff" stroke="black" stroke-width="2" d="M20,-8C20,-8 324.5,-8 324.5,-8 330.5,-8 336.5,-14 336.5,-20 336.5,-20 336.5,-226 336.5,-226 336.5,-232 330.5,-238 324.5,-238 324.5,-238 20,-238 20,-238 14,-238 8,-232 8,-226 8,-226 8,-20 8,-20 8,-14 14,-8 20,-8"/>
<text xml:space="preserve" text-anchor="middle" x="172.25" y="-225.45" font-family="Helvetica,sans-Serif" font-weight="bold" font-size="9.00">import_cruiser [3036 LOC]</text>
</g>
<!-- import_cruiser.click -->
<g id="node1" class="node">
<title>import_cruiser.click</title>
<g id="a_node1"><a xlink:href="click" xlink:title="click">
<path fill="#dcfce7" stroke="#15803d" stroke-width="1.4" d="M185.83,-181.88C185.83,-181.88 143.67,-181.88 143.67,-181.88 140.71,-181.88 137.75,-178.92 137.75,-175.96 137.75,-175.96 137.75,-170.04 137.75,-170.04 137.75,-167.08 140.71,-164.12 143.67,-164.12 143.67,-164.12 185.83,-164.12 185.83,-164.12 188.79,-164.12 191.75,-167.08 191.75,-170.04 191.75,-170.04 191.75,-175.96 191.75,-175.96 191.75,-178.92 188.79,-181.88 185.83,-181.88"/>
<text xml:space="preserve" text-anchor="start" x="155.75" y="-169.32" font-family="Helvetica,sans-Serif" font-size="9.00" fill="#14532d">click</text>
</a>
</g>
</g>
<!-- import_cruiser.analyzer -->
<g id="node2" class="node">
<title>import_cruiser.analyzer</title>
<g id="a_node2"><a xlink:href="import_cruiser.analyzer" xlink:title="analyzer.py [366 LOC]">
<path fill="#ffffcc" stroke="black" d="M212.21,-77.88C212.21,-77.88 117.29,-77.88 117.29,-77.88 114.33,-77.88 111.38,-74.92 111.38,-71.96 111.38,-71.96 111.38,-66.04 111.38,-66.04 111.38,-63.08 114.33,-60.12 117.29,-60.12 117.29,-60.12 212.21,-60.12 212.21,-60.12 215.17,-60.12 218.12,-63.08 218.12,-66.04 218.12,-66.04 218.12,-71.96 218.12,-71.96 218.12,-74.92 215.17,-77.88 212.21,-77.88"/>
<text xml:space="preserve" text-anchor="start" x="119.38" y="-65.33" font-family="Helvetica,sans-Serif" font-size="9.00">analyzer.py [366 LOC]</text>
</a>
</g>
</g>
<!-- import_cruiser.graph -->
<g id="node7" class="node">
<title>import_cruiser.graph</title>
<g id="a_node7"><a xlink:href="import_cruiser.graph" xlink:title="graph.py [299 LOC]">
<path fill="#ffffcc" stroke="black" d="M322.58,-107.88C322.58,-107.88 238.92,-107.88 238.92,-107.88 235.96,-107.88 233,-104.92 233,-101.96 233,-101.96 233,-96.04 233,-96.04 233,-93.08 235.96,-90.12 238.92,-90.12 238.92,-90.12 322.58,-90.12 322.58,-90.12 325.54,-90.12 328.5,-93.08 328.5,-96.04 328.5,-96.04 328.5,-101.96 328.5,-101.96 328.5,-104.92 325.54,-107.88 322.58,-107.88"/>
<text xml:space="preserve" text-anchor="start" x="241" y="-95.33" font-family="Helvetica,sans-Serif" font-size="9.00">graph.py [299 LOC]</text>
</a>
</g>
</g>
<!-- import_cruiser.analyzer&#45;&gt;import_cruiser.graph -->
<g id="edge1" class="edge">
<title>import_cruiser.analyzer&#45;&gt;import_cruiser.graph</title>
<path fill="none" stroke="#000000" stroke-width="1.4" stroke-opacity="0.121569" d="M201.2,-78.33C212.13,-81.21 224.31,-84.41 235.75,-87.42"/>
<polygon fill="#000000" fill-opacity="0.121569" stroke="#000000" stroke-width="1.4" stroke-opacity="0.121569" points="234.88,-89.73 242.28,-89.14 236.13,-84.99 234.88,-89.73"/>
</g>
<!-- import_cruiser.cli -->
<g id="node3" class="node">
<title>import_cruiser.cli</title>
<g id="a_node3"><a xlink:href="import_cruiser.cli" xlink:title="cli.py [969 LOC]">
<path fill="#ffffcc" stroke="black" d="M90.58,-107.88C90.58,-107.88 21.92,-107.88 21.92,-107.88 18.96,-107.88 16,-104.92 16,-101.96 16,-101.96 16,-96.04 16,-96.04 16,-93.08 18.96,-90.12 21.92,-90.12 21.92,-90.12 90.58,-90.12 90.58,-90.12 93.54,-90.12 96.5,-93.08 96.5,-96.04 96.5,-96.04 96.5,-101.96 96.5,-101.96 96.5,-104.92 93.54,-107.88 90.58,-107.88"/>
<text xml:space="preserve" text-anchor="start" x="24" y="-95.33" font-family="Helvetica,sans-Serif" font-size="9.00">cli.py [969 LOC]</text>
</a>
</g>
</g>
<!-- import_cruiser.cli&#45;&gt;import_cruiser.click -->
<g id="edge2" class="edge">
<title>import_cruiser.cli&#45;&gt;import_cruiser.click</title>
<path fill="none" stroke="#15803d" stroke-width="1.8" stroke-dasharray="5,2" d="M62.81,-108.07C71.26,-121.09 88.61,-144.96 109.5,-158 115.07,-161.48 121.45,-164.16 127.84,-166.23"/>
<polygon fill="#15803d" stroke="#15803d" stroke-width="1.8" points="127.08,-168.56 134.48,-168.1 128.41,-163.84 127.08,-168.56"/>
</g>
<!-- import_cruiser.cli&#45;&gt;import_cruiser.analyzer -->
<g id="edge3" class="edge">
<title>import_cruiser.cli&#45;&gt;import_cruiser.analyzer</title>
<path fill="none" stroke="#000000" stroke-width="1.4" stroke-opacity="0.121569" d="M89.57,-89.67C96.16,-87.78 103.05,-85.82 109.5,-84 113.31,-82.93 117.26,-81.82 121.23,-80.71"/>
<polygon fill="#000000" fill-opacity="0.121569" stroke="#000000" stroke-width="1.4" stroke-opacity="0.121569" points="121.75,-83.11 127.84,-78.88 120.43,-78.39 121.75,-83.11"/>
</g>
<!-- import_cruiser.config -->
<g id="node4" class="node">
<title>import_cruiser.config</title>
<g id="a_node4"><a xlink:href="import_cruiser.config" xlink:title="config.py [46 LOC]">
<path fill="#ffffcc" stroke="black" d="M320.33,-40.88C320.33,-40.88 241.17,-40.88 241.17,-40.88 238.21,-40.88 235.25,-37.92 235.25,-34.96 235.25,-34.96 235.25,-29.04 235.25,-29.04 235.25,-26.08 238.21,-23.12 241.17,-23.12 241.17,-23.12 320.33,-23.12 320.33,-23.12 323.29,-23.12 326.25,-26.08 326.25,-29.04 326.25,-29.04 326.25,-34.96 326.25,-34.96 326.25,-37.92 323.29,-40.88 320.33,-40.88"/>
<text xml:space="preserve" text-anchor="start" x="243.25" y="-28.32" font-family="Helvetica,sans-Serif" font-size="9.00">config.py [46 LOC]</text>
</a>
</g>
</g>
<!-- import_cruiser.cli&#45;&gt;import_cruiser.config -->
<g id="edge4" class="edge">
<title>import_cruiser.cli&#45;&gt;import_cruiser.config</title>
<path fill="none" stroke="#000000" stroke-width="1.4" stroke-opacity="0.121569" d="M60.45,-89.66C66.77,-72.87 82.63,-38.03 109.5,-24 151.45,-2.1 207.44,-10.69 243.55,-20.22"/>
<polygon fill="#000000" fill-opacity="0.121569" stroke="#000000" stroke-width="1.4" stroke-opacity="0.121569" points="242.84,-22.56 250.24,-22.07 244.15,-17.84 242.84,-22.56"/>
</g>
<!-- import_cruiser.exporter -->
<g id="node6" class="node">
<title>import_cruiser.exporter</title>
<g id="a_node6"><a xlink:href="import_cruiser.exporter" xlink:title="exporter.py [1299 LOC]">
<path fill="#ffffcc" stroke="black" d="M214.08,-107.88C214.08,-107.88 115.42,-107.88 115.42,-107.88 112.46,-107.88 109.5,-104.92 109.5,-101.96 109.5,-101.96 109.5,-96.04 109.5,-96.04 109.5,-93.08 112.46,-90.12 115.42,-90.12 115.42,-90.12 214.08,-90.12 214.08,-90.12 217.04,-90.12 220,-93.08 220,-96.04 220,-96.04 220,-101.96 220,-101.96 220,-104.92 217.04,-107.88 214.08,-107.88"/>
<text xml:space="preserve" text-anchor="start" x="117.5" y="-95.33" font-family="Helvetica,sans-Serif" font-size="9.00">exporter.py [1299 LOC]</text>
</a>
</g>
</g>
<!-- import_cruiser.cli&#45;&gt;import_cruiser.exporter -->
<g id="edge5" class="edge">
<title>import_cruiser.cli&#45;&gt;import_cruiser.exporter</title>
<path fill="none" stroke="#000000" stroke-width="1.4" stroke-opacity="0.121569" d="M96.91,-99C98.04,-99 99.18,-99 100.32,-99"/>
<polygon fill="#000000" fill-opacity="0.121569" stroke="#000000" stroke-width="1.4" stroke-opacity="0.121569" points="100.08,-101.45 107.08,-99 100.08,-96.55 100.08,-101.45"/>
</g>
<!-- import_cruiser.cli&#45;&gt;import_cruiser.graph -->
<g id="edge6" class="edge">
<title>import_cruiser.cli&#45;&gt;import_cruiser.graph</title>
<path fill="none" stroke="#000000" stroke-width="1.4" stroke-opacity="0.121569" d="M84.33,-108.33C92.33,-110.66 101.18,-112.83 109.5,-114 158.13,-120.84 171.26,-120.02 220,-114 226.49,-113.2 233.3,-111.92 239.89,-110.44"/>
<polygon fill="#000000" fill-opacity="0.121569" stroke="#000000" stroke-width="1.4" stroke-opacity="0.121569" points="240.41,-112.84 246.64,-108.83 239.27,-108.08 240.41,-112.84"/>
</g>
<!-- import_cruiser.validator -->
<g id="node8" class="node">
<title>import_cruiser.validator</title>
<g id="a_node8"><a xlink:href="import_cruiser.validator" xlink:title="validator.py [53 LOC]">
<path fill="#ffffcc" stroke="black" d="M209.58,-47.88C209.58,-47.88 119.92,-47.88 119.92,-47.88 116.96,-47.88 114,-44.92 114,-41.96 114,-41.96 114,-36.04 114,-36.04 114,-33.08 116.96,-30.12 119.92,-30.12 119.92,-30.12 209.58,-30.12 209.58,-30.12 212.54,-30.12 215.5,-33.08 215.5,-36.04 215.5,-36.04 215.5,-41.96 215.5,-41.96 215.5,-44.92 212.54,-47.88 209.58,-47.88"/>
<text xml:space="preserve" text-anchor="start" x="122" y="-35.33" font-family="Helvetica,sans-Serif" font-size="9.00">validator.py [53 LOC]</text>
</a>
</g>
</g>
<!-- import_cruiser.cli&#45;&gt;import_cruiser.validator -->
<g id="edge7" class="edge">
<title>import_cruiser.cli&#45;&gt;import_cruiser.validator</title>
<path fill="none" stroke="#000000" stroke-width="1.4" stroke-opacity="0.121569" d="M65.58,-89.7C75.2,-79.5 91.97,-63.36 109.5,-54 111.02,-53.19 112.59,-52.42 114.19,-51.69"/>
<polygon fill="#000000" fill-opacity="0.121569" stroke="#000000" stroke-width="1.4" stroke-opacity="0.121569" points="114.89,-54.05 120.45,-49.14 113.05,-49.51 114.89,-54.05"/>
</g>
<!-- import_cruiser.tomli -->
<g id="node9" class="node">
<title>import_cruiser.tomli</title>
<g id="a_node9"><a xlink:href="tomli" xlink:title="tomli">
<path fill="#dcfce7" stroke="#15803d" stroke-width="1.4" d="M185.83,-151.88C185.83,-151.88 143.67,-151.88 143.67,-151.88 140.71,-151.88 137.75,-148.92 137.75,-145.96 137.75,-145.96 137.75,-140.04 137.75,-140.04 137.75,-137.08 140.71,-134.12 143.67,-134.12 143.67,-134.12 185.83,-134.12 185.83,-134.12 188.79,-134.12 191.75,-137.08 191.75,-140.04 191.75,-140.04 191.75,-145.96 191.75,-145.96 191.75,-148.92 188.79,-151.88 185.83,-151.88"/>
<text xml:space="preserve" text-anchor="start" x="155" y="-139.32" font-family="Helvetica,sans-Serif" font-size="9.00" fill="#14532d">tomli</text>
</a>
</g>
</g>
<!-- import_cruiser.cli&#45;&gt;import_cruiser.tomli -->
<g id="edge8" class="edge">
<title>import_cruiser.cli&#45;&gt;import_cruiser.tomli</title>
<path fill="none" stroke="#15803d" stroke-width="1.8" stroke-dasharray="5,2" d="M74.38,-108.29C84.45,-113.56 97.51,-120.06 109.5,-125 115.48,-127.47 121.93,-129.84 128.22,-132.01"/>
<polygon fill="#15803d" stroke="#15803d" stroke-width="1.8" points="127.26,-134.28 134.68,-134.18 128.82,-129.63 127.26,-134.28"/>
</g>
<!-- import_cruiser.detector -->
<g id="node5" class="node">
<title>import_cruiser.detector</title>
<g id="a_node5"><a xlink:href="import_cruiser.detector" xlink:title="detector.py [4 LOC]">
<path fill="#ffffcc" stroke="black" d="M205.83,-211.88C205.83,-211.88 123.67,-211.88 123.67,-211.88 120.71,-211.88 117.75,-208.92 117.75,-205.96 117.75,-205.96 117.75,-200.04 117.75,-200.04 117.75,-197.08 120.71,-194.12 123.67,-194.12 123.67,-194.12 205.83,-194.12 205.83,-194.12 208.79,-194.12 211.75,-197.08 211.75,-200.04 211.75,-200.04 211.75,-205.96 211.75,-205.96 211.75,-208.92 208.79,-211.88 205.83,-211.88"/>
<text xml:space="preserve" text-anchor="start" x="125.75" y="-199.32" font-family="Helvetica,sans-Serif" font-size="9.00">detector.py [4 LOC]</text>
</a>
</g>
</g>
<!-- import_cruiser.detector&#45;&gt;import_cruiser.graph -->
<g id="edge9" class="edge">
<title>import_cruiser.detector&#45;&gt;import_cruiser.graph</title>
<path fill="none" stroke="#000000" stroke-width="1.4" stroke-opacity="0.121569" d="M209.94,-193.74C213.5,-192.13 216.91,-190.23 220,-188 245.53,-169.6 263.4,-136.67 272.59,-116.44"/>
<polygon fill="#000000" fill-opacity="0.121569" stroke="#000000" stroke-width="1.4" stroke-opacity="0.121569" points="274.82,-117.48 275.36,-110.08 270.32,-115.52 274.82,-117.48"/>
</g>
<!-- import_cruiser.exporter&#45;&gt;import_cruiser.graph -->
<g id="edge10" class="edge">
<title>import_cruiser.exporter&#45;&gt;import_cruiser.graph</title>
<path fill="none" stroke="#000000" stroke-width="1.4" stroke-opacity="0.121569" d="M220.41,-99C221.57,-99 222.73,-99 223.89,-99"/>
<polygon fill="#000000" fill-opacity="0.121569" stroke="#000000" stroke-width="1.4" stroke-opacity="0.121569" points="223.6,-101.45 230.6,-99 223.6,-96.55 223.6,-101.45"/>
</g>
<!-- import_cruiser.validator&#45;&gt;import_cruiser.config -->
<g id="edge11" class="edge">
<title>import_cruiser.validator&#45;&gt;import_cruiser.config</title>
<path fill="none" stroke="#000000" stroke-width="1.4" stroke-opacity="0.121569" d="M215.75,-35.93C219.12,-35.72 222.52,-35.51 225.91,-35.31"/>
<polygon fill="#000000" fill-opacity="0.121569" stroke="#000000" stroke-width="1.4" stroke-opacity="0.121569" points="225.86,-37.76 232.69,-34.89 225.56,-32.87 225.86,-37.76"/>
</g>
<!-- import_cruiser.validator&#45;&gt;import_cruiser.graph -->
<g id="edge12" class="edge">
<title>import_cruiser.validator&#45;&gt;import_cruiser.graph</title>
<path fill="none" stroke="#000000" stroke-width="1.4" stroke-opacity="0.121569" d="M206.09,-48.31C210.88,-49.95 215.62,-51.84 220,-54 235.86,-61.81 251.76,-74.05 263.16,-83.79"/>
<polygon fill="#000000" fill-opacity="0.121569" stroke="#000000" stroke-width="1.4" stroke-opacity="0.121569" points="261.49,-85.58 268.37,-88.36 264.72,-81.9 261.49,-85.58"/>
</g>
</g>
</svg>
