<?xml version="1.0" encoding="UTF-8" standalone="no"?>
<!DOCTYPE svg PUBLIC "-//W3C//DTD SVG 1.1//EN"
 "http://www.w3.org/Graphics/SVG/1.1/DTD/svg11.dtd">
<!-- Generated by graphviz version 13.0.1 (20250615.1724)
 -->
<!-- Title: import_cruiser Pages: 1 -->
<svg width="475pt" height="590pt"
 viewBox="17.00 17.00 450.00 565.00" xmlns="http://www.w3.org/2000/svg" xmlns:xlink="http://www.w3.org/1999/xlink">
<g id="graph0" class="graph" transform="scale(1 1) rotate(0) translate(50.4 523.56)">
<title>import_cruiser</title>
<polygon fill="white" stroke="none" points="-25.2,25.2 -25.2,-498.36 383.87,-498.36 383.87,25.2 -25.2,25.2"/>
<g id="clust1" class="cluster">
<title>cluster_import_cruiser</title>
<path fill="none" stroke="black" d="M12,0C12,0 346.67,0 346.67,0 352.67,0 358.67,-6 358.67,-12 358.67,-12 358.67,-461.16 358.67,-461.16 358.67,-467.16 352.67,-473.16 346.67,-473.16 346.67,-473.16 12,-473.16 12,-473.16 6,-473.16 0,-467.16 0,-461.16 0,-461.16 0,-12 0,-12 0,-6 6,0 12,0"/>
<text xml:space="preserve" text-anchor="middle" x="179.34" y="-460.61" font-family="Helvetica,sans-Serif" font-size="9.00">import_cruiser</text>
</g>
<!-- import_cruiser.analyzer -->
<g id="node1" class="node">
<title>import_cruiser.analyzer</title>
<g id="a_node1"><a xlink:title="/Users/kevin/Documents/GitHub/pydepend/src/import_cruiser/analyzer.py">
<path fill="#ffffcc" stroke="black" d="M48.08,-235.22C48.08,-235.22 5.92,-235.22 5.92,-235.22 2.96,-235.22 0,-232.26 0,-229.3 0,-229.3 0,-223.38 0,-223.38 0,-220.42 2.96,-217.47 5.92,-217.47 5.92,-217.47 48.08,-217.47 48.08,-217.47 51.04,-217.47 54,-220.42 54,-223.38 54,-223.38 54,-229.3 54,-229.3 54,-232.26 51.04,-235.22 48.08,-235.22"/>
<text xml:space="preserve" text-anchor="middle" x="27" y="-222.67" font-family="Helvetica,sans-Serif" font-size="9.00">analyzer</text>
</a>
</g>
</g>
<!-- import_cruiser.graph -->
<g id="node6" class="node">
<title>import_cruiser.graph</title>
<g id="a_node6"><a xlink:title="/Users/kevin/Documents/GitHub/pydepend/src/import_cruiser/graph.py">
<path fill="#ffffcc" stroke="black" d="M178.84,-306.54C178.84,-306.54 136.67,-306.54 136.67,-306.54 133.71,-306.54 130.75,-303.59 130.75,-300.63 130.75,-300.63 130.75,-294.71 130.75,-294.71 130.75,-291.75 133.71,-288.79 136.67,-288.79 136.67,-288.79 178.84,-288.79 178.84,-288.79 181.8,-288.79 184.75,-291.75 184.75,-294.71 184.75,-294.71 184.75,-300.63 184.75,-300.63 184.75,-303.59 181.8,-306.54 178.84,-306.54"/>
<text xml:space="preserve" text-anchor="middle" x="157.75" y="-293.99" font-family="Helvetica,sans-Serif" font-size="9.00">graph</text>
</a>
</g>
</g>
<!-- import_cruiser.analyzer&#45;&gt;import_cruiser.graph -->
<g id="edge1" class="edge">
<title>import_cruiser.analyzer&#45;&gt;import_cruiser.graph</title>
<path fill="none" stroke="#000000" stroke-width="2" stroke-opacity="0.200000" d="M34.64,-235.44C59.55,-264.89 68.09,-270.94 121.7,-287.08"/>
<polygon fill="#000000" fill-opacity="0.200000" stroke="#000000" stroke-width="2" stroke-opacity="0.200000" points="121.07,-289.09 127.42,-288.79 122.27,-285.06 121.07,-289.09"/>
</g>
<!-- import_cruiser.cli -->
<g id="node2" class="node">
<title>import_cruiser.cli</title>
<g id="a_node2"><a xlink:title="/Users/kevin/Documents/GitHub/pydepend/src/import_cruiser/cli.py">
<path fill="#ffffcc" stroke="black" d="M245.4,-186.05C245.4,-186.05 203.23,-186.05 203.23,-186.05 200.27,-186.05 197.31,-183.09 197.31,-180.13 197.31,-180.13 197.31,-174.21 197.31,-174.21 197.31,-171.26 200.27,-168.3 203.23,-168.3 203.23,-168.3 245.4,-168.3 245.4,-168.3 248.36,-168.3 251.31,-171.26 251.31,-174.21 251.31,-174.21 251.31,-180.13 251.31,-180.13 251.31,-183.09 248.36,-186.05 245.4,-186.05"/>
<text xml:space="preserve" text-anchor="middle" x="224.31" y="-173.5" font-family="Helvetica,sans-Serif" font-size="9.00">cli</text>
</a>
</g>
</g>
<!-- import_cruiser.cli&#45;&gt;import_cruiser.analyzer -->
<g id="edge2" class="edge">
<title>import_cruiser.cli&#45;&gt;import_cruiser.analyzer</title>
<path fill="none" stroke="#000000" stroke-width="2" stroke-opacity="0.200000" d="M196.86,-177.7C104.38,-179.61 89.43,-182.3 47.1,-211.93"/>
<polygon fill="#000000" fill-opacity="0.200000" stroke="#000000" stroke-width="2" stroke-opacity="0.200000" points="45.91,-210.2 42.23,-215.39 48.34,-213.63 45.91,-210.2"/>
</g>
<!-- import_cruiser.config -->
<g id="node3" class="node">
<title>import_cruiser.config</title>
<g id="a_node3"><a xlink:title="/Users/kevin/Documents/GitHub/pydepend/src/import_cruiser/config.py">
<path fill="#ffffcc" stroke="black" d="M276.26,-17.75C276.26,-17.75 234.09,-17.75 234.09,-17.75 231.13,-17.75 228.18,-14.79 228.18,-11.83 228.18,-11.83 228.18,-5.92 228.18,-5.92 228.18,-2.96 231.13,0 234.09,0 234.09,0 276.26,0 276.26,0 279.22,0 282.18,-2.96 282.18,-5.92 282.18,-5.92 282.18,-11.83 282.18,-11.83 282.18,-14.79 279.22,-17.75 276.26,-17.75"/>
<text xml:space="preserve" text-anchor="middle" x="255.18" y="-5.2" font-family="Helvetica,sans-Serif" font-size="9.00">config</text>
</a>
</g>
</g>
<!-- import_cruiser.cli&#45;&gt;import_cruiser.config -->
<g id="edge3" class="edge">
<title>import_cruiser.cli&#45;&gt;import_cruiser.config</title>
<path fill="none" stroke="#000000" stroke-width="2" stroke-opacity="0.200000" d="M226.6,-167.94C249.48,-75.7 252.59,-62.3 254.37,-27.12"/>
<polygon fill="#000000" fill-opacity="0.200000" stroke="#000000" stroke-width="2" stroke-opacity="0.200000" points="256.47,-27.3 254.65,-21.21 252.27,-27.11 256.47,-27.3"/>
</g>
<!-- import_cruiser.exporter -->
<g id="node5" class="node">
<title>import_cruiser.exporter</title>
<g id="a_node5"><a xlink:title="/Users/kevin/Documents/GitHub/pydepend/src/import_cruiser/exporter.py">
<path fill="#ffffcc" stroke="black" d="M352.76,-310.93C352.76,-310.93 310.59,-310.93 310.59,-310.93 307.63,-310.93 304.67,-307.98 304.67,-305.02 304.67,-305.02 304.67,-299.1 304.67,-299.1 304.67,-296.14 307.63,-293.18 310.59,-293.18 310.59,-293.18 352.76,-293.18 352.76,-293.18 355.72,-293.18 358.67,-296.14 358.67,-299.1 358.67,-299.1 358.67,-305.02 358.67,-305.02 358.67,-307.98 355.72,-310.93 352.76,-310.93"/>
<text xml:space="preserve" text-anchor="middle" x="331.67" y="-298.38" font-family="Helvetica,sans-Serif" font-size="9.00">exporter</text>
</a>
</g>
</g>
<!-- import_cruiser.cli&#45;&gt;import_cruiser.exporter -->
<g id="edge4" class="edge">
<title>import_cruiser.cli&#45;&gt;import_cruiser.exporter</title>
<path fill="none" stroke="#000000" stroke-width="2" stroke-opacity="0.200000" d="M236.85,-186.36C302.81,-234.8 310.86,-242.47 325.73,-284.67"/>
<polygon fill="#000000" fill-opacity="0.200000" stroke="#000000" stroke-width="2" stroke-opacity="0.200000" points="323.66,-285.13 327.61,-290.11 327.63,-283.75 323.66,-285.13"/>
</g>
<!-- import_cruiser.cli&#45;&gt;import_cruiser.graph -->
<g id="edge5" class="edge">
<title>import_cruiser.cli&#45;&gt;import_cruiser.graph</title>
<path fill="none" stroke="#000000" stroke-width="2" stroke-opacity="0.200000" d="M223.43,-186.51C218.84,-234.21 215.93,-241.37 173.56,-282.45"/>
<polygon fill="#000000" fill-opacity="0.200000" stroke="#000000" stroke-width="2" stroke-opacity="0.200000" points="172.35,-280.7 169.5,-286.38 175.27,-283.72 172.35,-280.7"/>
</g>
<!-- import_cruiser.validator -->
<g id="node7" class="node">
<title>import_cruiser.validator</title>
<g id="a_node7"><a xlink:title="/Users/kevin/Documents/GitHub/pydepend/src/import_cruiser/validator.py">
<path fill="#ffffcc" stroke="black" d="M144.01,-105.51C144.01,-105.51 101.85,-105.51 101.85,-105.51 98.89,-105.51 95.93,-102.55 95.93,-99.59 95.93,-99.59 95.93,-93.68 95.93,-93.68 95.93,-90.72 98.89,-87.76 101.85,-87.76 101.85,-87.76 144.01,-87.76 144.01,-87.76 146.97,-87.76 149.93,-90.72 149.93,-93.68 149.93,-93.68 149.93,-99.59 149.93,-99.59 149.93,-102.55 146.97,-105.51 144.01,-105.51"/>
<text xml:space="preserve" text-anchor="middle" x="122.93" y="-92.96" font-family="Helvetica,sans-Serif" font-size="9.00">validator</text>
</a>
</g>
</g>
<!-- import_cruiser.cli&#45;&gt;import_cruiser.validator -->
<g id="edge6" class="edge">
<title>import_cruiser.cli&#45;&gt;import_cruiser.validator</title>
<path fill="none" stroke="#000000" stroke-width="2" stroke-opacity="0.200000" d="M217.03,-167.95C187.19,-130.2 176.13,-117.18 158.41,-108.7"/>
<polygon fill="#000000" fill-opacity="0.200000" stroke="#000000" stroke-width="2" stroke-opacity="0.200000" points="159.47,-106.87 153.13,-106.47 157.84,-110.74 159.47,-106.87"/>
</g>
<!-- import_cruiser.detector -->
<g id="node4" class="node">
<title>import_cruiser.detector</title>
<g id="a_node4"><a xlink:title="/Users/kevin/Documents/GitHub/pydepend/src/import_cruiser/detector.py">
<path fill="#ffffcc" stroke="black" d="M127.16,-473.16C127.16,-473.16 84.99,-473.16 84.99,-473.16 82.03,-473.16 79.07,-470.2 79.07,-467.24 79.07,-467.24 79.07,-461.33 79.07,-461.33 79.07,-458.37 82.03,-455.41 84.99,-455.41 84.99,-455.41 127.16,-455.41 127.16,-455.41 130.12,-455.41 133.07,-458.37 133.07,-461.33 133.07,-461.33 133.07,-467.24 133.07,-467.24 133.07,-470.2 130.12,-473.16 127.16,-473.16"/>
<text xml:space="preserve" text-anchor="middle" x="106.07" y="-460.61" font-family="Helvetica,sans-Serif" font-size="9.00">detector</text>
</a>
</g>
</g>
<!-- import_cruiser.detector&#45;&gt;import_cruiser.graph -->
<g id="edge7" class="edge">
<title>import_cruiser.detector&#45;&gt;import_cruiser.graph</title>
<path fill="none" stroke="#000000" stroke-width="2" stroke-opacity="0.200000" d="M108.79,-455.17C120.47,-416.04 123.11,-407.54 152.12,-315.55"/>
<polygon fill="#000000" fill-opacity="0.200000" stroke="#000000" stroke-width="2" stroke-opacity="0.200000" points="154.1,-316.23 153.91,-309.87 150.1,-314.96 154.1,-316.23"/>
</g>
<!-- import_cruiser.exporter&#45;&gt;import_cruiser.graph -->
<g id="edge8" class="edge">
<title>import_cruiser.exporter&#45;&gt;import_cruiser.graph</title>
<path fill="none" stroke="#000000" stroke-width="2" stroke-opacity="0.200000" d="M304.33,-311.43C271.94,-321.56 255.59,-320.29 193.71,-306.08"/>
<polygon fill="#000000" fill-opacity="0.200000" stroke="#000000" stroke-width="2" stroke-opacity="0.200000" points="194.37,-304.08 188.05,-304.77 193.42,-308.17 194.37,-304.08"/>
</g>
<!-- import_cruiser.validator&#45;&gt;import_cruiser.config -->
<g id="edge9" class="edge">
<title>import_cruiser.validator&#45;&gt;import_cruiser.config</title>
<path fill="none" stroke="#000000" stroke-width="2" stroke-opacity="0.200000" d="M131.3,-87.31C176.46,-37.05 188.9,-24.61 219.17,-16.46"/>
<polygon fill="#000000" fill-opacity="0.200000" stroke="#000000" stroke-width="2" stroke-opacity="0.200000" points="219.49,-18.54 224.81,-15.07 218.49,-14.46 219.49,-18.54"/>
</g>
<!-- import_cruiser.validator&#45;&gt;import_cruiser.graph -->
<g id="edge10" class="edge">
<title>import_cruiser.validator&#45;&gt;import_cruiser.graph</title>
<path fill="none" stroke="#000000" stroke-width="2" stroke-opacity="0.200000" d="M121.48,-105.86C112.22,-165.33 113.55,-173.28 151.56,-280.25"/>
<polygon fill="#000000" fill-opacity="0.200000" stroke="#000000" stroke-width="2" stroke-opacity="0.200000" points="149.48,-280.67 153.47,-285.62 153.44,-279.26 149.48,-280.67"/>
</g>
</g>
</svg>
