<?xml version="1.0" encoding="UTF-8" standalone="no"?>
<!DOCTYPE svg PUBLIC "-//W3C//DTD SVG 1.1//EN"
 "http://www.w3.org/Graphics/SVG/1.1/DTD/svg11.dtd">
<!-- Generated by graphviz version 13.0.1 (20250615.1724)
 -->
<!-- Title: import_cruiser Pages: 1 -->
<svg width="408pt" height="522pt"
 viewBox="-8.00 -8.00 408.00 522.00" xmlns="http://www.w3.org/2000/svg" xmlns:xlink="http://www.w3.org/1999/xlink">
<g id="graph0" class="graph" transform="scale(1 1) rotate(0) translate(4 501.81)">
<title>import_cruiser</title>
<polygon fill="white" stroke="none" points="-4,4 -4,-501.81 387.67,-501.81 387.67,4 -4,4"/>
<g id="clust1" class="cluster">
<title>cluster_src</title>
<path fill="#ffffff" stroke="black" stroke-width="2" d="M12,0C12,0 371.67,0 371.67,0 377.67,0 383.67,-6 383.67,-12 383.67,-12 383.67,-485.81 383.67,-485.81 383.67,-491.81 377.67,-497.81 371.67,-497.81 371.67,-497.81 12,-497.81 12,-497.81 6,-497.81 0,-491.81 0,-485.81 0,-485.81 0,-12 0,-12 0,-6 6,0 12,0"/>
<text xml:space="preserve" text-anchor="middle" x="191.83" y="-485.26" font-family="Helvetica,sans-Serif" font-weight="bold" font-size="9.00">src</text>
</g>
<!-- src/import_cruiser/analyzer.py -->
<g id="node1" class="node">
<title>src/import_cruiser/analyzer.py</title>
<g id="a_node1"><a xlink:href="src/import_cruiser/analyzer.py" xlink:title="analyzer.py">
<path fill="#ffffcc" stroke="black" d="M57.33,-246.99C57.33,-246.99 5.92,-246.99 5.92,-246.99 2.96,-246.99 0,-244.03 0,-241.07 0,-241.07 0,-235.15 0,-235.15 0,-232.2 2.96,-229.24 5.92,-229.24 5.92,-229.24 57.33,-229.24 57.33,-229.24 60.29,-229.24 63.25,-232.2 63.25,-235.15 63.25,-235.15 63.25,-241.07 63.25,-241.07 63.25,-244.03 60.29,-246.99 57.33,-246.99"/>
<text xml:space="preserve" text-anchor="start" x="8" y="-234.44" font-family="Helvetica,sans-Serif" font-size="9.00">analyzer.py</text>
</a>
</g>
</g>
<!-- src/import_cruiser/graph.py -->
<g id="node6" class="node">
<title>src/import_cruiser/graph.py</title>
<g id="a_node6"><a xlink:href="src/import_cruiser/graph.py" xlink:title="graph.py">
<path fill="#ffffcc" stroke="black" d="M190.54,-322.18C190.54,-322.18 148.37,-322.18 148.37,-322.18 145.42,-322.18 142.46,-319.22 142.46,-316.26 142.46,-316.26 142.46,-310.34 142.46,-310.34 142.46,-307.39 145.42,-304.43 148.37,-304.43 148.37,-304.43 190.54,-304.43 190.54,-304.43 193.5,-304.43 196.46,-307.39 196.46,-310.34 196.46,-310.34 196.46,-316.26 196.46,-316.26 196.46,-319.22 193.5,-322.18 190.54,-322.18"/>
<text xml:space="preserve" text-anchor="start" x="151.46" y="-309.63" font-family="Helvetica,sans-Serif" font-size="9.00">graph.py</text>
</a>
</g>
</g>
<!-- src/import_cruiser/analyzer.py&#45;&gt;src/import_cruiser/graph.py -->
<g id="edge1" class="edge">
<title>src/import_cruiser/analyzer.py&#45;&gt;src/import_cruiser/graph.py</title>
<path fill="none" stroke="#000000" stroke-width="2" stroke-opacity="0.200000" d="M48.8,-247.48C72.97,-260.67 117.15,-284.77 144.82,-299.86"/>
<polygon fill="#000000" fill-opacity="0.200000" stroke="#000000" stroke-width="2" stroke-opacity="0.200000" points="143.57,-301.57 149.84,-302.6 145.58,-297.88 143.57,-301.57"/>
</g>
<!-- src/import_cruiser/cli.py -->
<g id="node2" class="node">
<title>src/import_cruiser/cli.py</title>
<g id="a_node2"><a xlink:href="src/import_cruiser/cli.py" xlink:title="cli.py">
<path fill="#ffffcc" stroke="black" d="M260.7,-195.16C260.7,-195.16 218.54,-195.16 218.54,-195.16 215.58,-195.16 212.62,-192.2 212.62,-189.24 212.62,-189.24 212.62,-183.32 212.62,-183.32 212.62,-180.37 215.58,-177.41 218.54,-177.41 218.54,-177.41 260.7,-177.41 260.7,-177.41 263.66,-177.41 266.62,-180.37 266.62,-183.32 266.62,-183.32 266.62,-189.24 266.62,-189.24 266.62,-192.2 263.66,-195.16 260.7,-195.16"/>
<text xml:space="preserve" text-anchor="start" x="229.12" y="-182.61" font-family="Helvetica,sans-Serif" font-size="9.00">cli.py</text>
</a>
</g>
</g>
<!-- src/import_cruiser/cli.py&#45;&gt;src/import_cruiser/analyzer.py -->
<g id="edge2" class="edge">
<title>src/import_cruiser/cli.py&#45;&gt;src/import_cruiser/analyzer.py</title>
<path fill="none" stroke="#000000" stroke-width="2" stroke-opacity="0.200000" d="M212.43,-193.06C176.73,-201.95 113.74,-217.65 72.34,-227.97"/>
<polygon fill="#000000" fill-opacity="0.200000" stroke="#000000" stroke-width="2" stroke-opacity="0.200000" points="71.85,-225.92 66.53,-229.41 72.86,-230 71.85,-225.92"/>
</g>
<!-- src/import_cruiser/config.py -->
<g id="node3" class="node">
<title>src/import_cruiser/config.py</title>
<g id="a_node3"><a xlink:href="src/import_cruiser/config.py" xlink:title="config.py">
<path fill="#ffffcc" stroke="black" d="M293.24,-17.75C293.24,-17.75 251.07,-17.75 251.07,-17.75 248.11,-17.75 245.15,-14.79 245.15,-11.83 245.15,-11.83 245.15,-5.92 245.15,-5.92 245.15,-2.96 248.11,0 251.07,0 251.07,0 293.24,0 293.24,0 296.19,0 299.15,-2.96 299.15,-5.92 299.15,-5.92 299.15,-11.83 299.15,-11.83 299.15,-14.79 296.19,-17.75 293.24,-17.75"/>
<text xml:space="preserve" text-anchor="start" x="253.78" y="-5.2" font-family="Helvetica,sans-Serif" font-size="9.00">config.py</text>
</a>
</g>
</g>
<!-- src/import_cruiser/cli.py&#45;&gt;src/import_cruiser/config.py -->
<g id="edge3" class="edge">
<title>src/import_cruiser/cli.py&#45;&gt;src/import_cruiser/config.py</title>
<path fill="none" stroke="#000000" stroke-width="2" stroke-opacity="0.200000" d="M241.28,-177.24C246.39,-149.37 261.97,-64.4 268.84,-26.94"/>
<polygon fill="#000000" fill-opacity="0.200000" stroke="#000000" stroke-width="2" stroke-opacity="0.200000" points="270.9,-27.37 269.91,-21.09 266.76,-26.61 270.9,-27.37"/>
</g>
<!-- src/import_cruiser/exporter.py -->
<g id="node5" class="node">
<title>src/import_cruiser/exporter.py</title>
<g id="a_node5"><a xlink:href="src/import_cruiser/exporter.py" xlink:title="exporter.py">
<path fill="#ffffcc" stroke="black" d="M377.75,-326.8C377.75,-326.8 327.83,-326.8 327.83,-326.8 324.88,-326.8 321.92,-323.85 321.92,-320.89 321.92,-320.89 321.92,-314.97 321.92,-314.97 321.92,-312.01 324.88,-309.05 327.83,-309.05 327.83,-309.05 377.75,-309.05 377.75,-309.05 380.71,-309.05 383.67,-312.01 383.67,-314.97 383.67,-314.97 383.67,-320.89 383.67,-320.89 383.67,-323.85 380.71,-326.8 377.75,-326.8"/>
<text xml:space="preserve" text-anchor="start" x="329.92" y="-314.25" font-family="Helvetica,sans-Serif" font-size="9.00">exporter.py</text>
</a>
</g>
</g>
<!-- src/import_cruiser/cli.py&#45;&gt;src/import_cruiser/exporter.py -->
<g id="edge4" class="edge">
<title>src/import_cruiser/cli.py&#45;&gt;src/import_cruiser/exporter.py</title>
<path fill="none" stroke="#000000" stroke-width="2" stroke-opacity="0.200000" d="M247.4,-195.33C266.38,-217.41 315.25,-274.26 339.18,-302.1"/>
<polygon fill="#000000" fill-opacity="0.200000" stroke="#000000" stroke-width="2" stroke-opacity="0.200000" points="337.48,-303.34 342.99,-306.52 340.67,-300.6 337.48,-303.34"/>
</g>
<!-- src/import_cruiser/cli.py&#45;&gt;src/import_cruiser/graph.py -->
<g id="edge5" class="edge">
<title>src/import_cruiser/cli.py&#45;&gt;src/import_cruiser/graph.py</title>
<path fill="none" stroke="#000000" stroke-width="2" stroke-opacity="0.200000" d="M234.57,-195.42C222.89,-216.56 193.84,-269.15 178.81,-296.38"/>
<polygon fill="#000000" fill-opacity="0.200000" stroke="#000000" stroke-width="2" stroke-opacity="0.200000" points="176.98,-295.33 175.92,-301.6 180.66,-297.36 176.98,-295.33"/>
</g>
<!-- src/import_cruiser/validator.py -->
<g id="node7" class="node">
<title>src/import_cruiser/validator.py</title>
<g id="a_node7"><a xlink:href="src/import_cruiser/validator.py" xlink:title="validator.py">
<path fill="#ffffcc" stroke="black" d="M158.45,-110.26C158.45,-110.26 107.04,-110.26 107.04,-110.26 104.08,-110.26 101.12,-107.3 101.12,-104.35 101.12,-104.35 101.12,-98.43 101.12,-98.43 101.12,-95.47 104.08,-92.51 107.04,-92.51 107.04,-92.51 158.45,-92.51 158.45,-92.51 161.41,-92.51 164.37,-95.47 164.37,-98.43 164.37,-98.43 164.37,-104.35 164.37,-104.35 164.37,-107.3 161.41,-110.26 158.45,-110.26"/>
<text xml:space="preserve" text-anchor="start" x="109.12" y="-97.71" font-family="Helvetica,sans-Serif" font-size="9.00">validator.py</text>
</a>
</g>
</g>
<!-- src/import_cruiser/cli.py&#45;&gt;src/import_cruiser/validator.py -->
<g id="edge6" class="edge">
<title>src/import_cruiser/cli.py&#45;&gt;src/import_cruiser/validator.py</title>
<path fill="none" stroke="#000000" stroke-width="2" stroke-opacity="0.200000" d="M228.18,-177.2C209.8,-162.59 173.5,-133.76 151.35,-116.16"/>
<polygon fill="#000000" fill-opacity="0.200000" stroke="#000000" stroke-width="2" stroke-opacity="0.200000" points="152.8,-114.64 146.8,-112.55 150.19,-117.92 152.8,-114.64"/>
</g>
<!-- src/import_cruiser/detector.py -->
<g id="node4" class="node">
<title>src/import_cruiser/detector.py</title>
<g id="a_node4"><a xlink:href="src/import_cruiser/detector.py" xlink:title="detector.py">
<path fill="#ffffcc" stroke="black" d="M139.56,-497.81C139.56,-497.81 90.4,-497.81 90.4,-497.81 87.44,-497.81 84.48,-494.85 84.48,-491.9 84.48,-491.9 84.48,-485.98 84.48,-485.98 84.48,-483.02 87.44,-480.06 90.4,-480.06 90.4,-480.06 139.56,-480.06 139.56,-480.06 142.52,-480.06 145.48,-483.02 145.48,-485.98 145.48,-485.98 145.48,-491.9 145.48,-491.9 145.48,-494.85 142.52,-497.81 139.56,-497.81"/>
<text xml:space="preserve" text-anchor="start" x="92.48" y="-485.26" font-family="Helvetica,sans-Serif" font-size="9.00">detector.py</text>
</a>
</g>
</g>
<!-- src/import_cruiser/detector.py&#45;&gt;src/import_cruiser/graph.py -->
<g id="edge7" class="edge">
<title>src/import_cruiser/detector.py&#45;&gt;src/import_cruiser/graph.py</title>
<path fill="none" stroke="#000000" stroke-width="2" stroke-opacity="0.200000" d="M117.76,-479.99C126.35,-452.28 152.63,-367.56 164.06,-330.72"/>
<polygon fill="#000000" fill-opacity="0.200000" stroke="#000000" stroke-width="2" stroke-opacity="0.200000" points="165.95,-331.69 165.72,-325.34 161.94,-330.45 165.95,-331.69"/>
</g>
<!-- src/import_cruiser/exporter.py&#45;&gt;src/import_cruiser/graph.py -->
<g id="edge8" class="edge">
<title>src/import_cruiser/exporter.py&#45;&gt;src/import_cruiser/graph.py</title>
<path fill="none" stroke="#000000" stroke-width="2" stroke-opacity="0.200000" d="M321.69,-317.14C289.53,-316.33 239.35,-315.07 205.48,-314.21"/>
<polygon fill="#000000" fill-opacity="0.200000" stroke="#000000" stroke-width="2" stroke-opacity="0.200000" points="205.89,-312.12 199.84,-314.07 205.78,-316.32 205.89,-312.12"/>
</g>
<!-- src/import_cruiser/validator.py&#45;&gt;src/import_cruiser/config.py -->
<g id="edge9" class="edge">
<title>src/import_cruiser/validator.py&#45;&gt;src/import_cruiser/config.py</title>
<path fill="none" stroke="#000000" stroke-width="2" stroke-opacity="0.200000" d="M146.62,-92.18C171.15,-75.9 222.3,-41.96 251.16,-22.8"/>
<polygon fill="#000000" fill-opacity="0.200000" stroke="#000000" stroke-width="2" stroke-opacity="0.200000" points="251.97,-24.79 255.81,-19.72 249.65,-21.29 251.97,-24.79"/>
</g>
<!-- src/import_cruiser/validator.py&#45;&gt;src/import_cruiser/graph.py -->
<g id="edge10" class="edge">
<title>src/import_cruiser/validator.py&#45;&gt;src/import_cruiser/graph.py</title>
<path fill="none" stroke="#000000" stroke-width="2" stroke-opacity="0.200000" d="M134.32,-110.49C139.91,-142.75 158.83,-251.98 166.35,-295.35"/>
<polygon fill="#000000" fill-opacity="0.200000" stroke="#000000" stroke-width="2" stroke-opacity="0.200000" points="164.23,-295.46 167.33,-301.01 168.37,-294.74 164.23,-295.46"/>
</g>
</g>
</svg>
