<?xml version="1.0" encoding="UTF-8" standalone="no"?>
<!DOCTYPE svg PUBLIC "-//W3C//DTD SVG 1.1//EN"
 "http://www.w3.org/Graphics/SVG/1.1/DTD/svg11.dtd">
<!-- Generated by graphviz version 13.0.1 (20250615.1724)
 -->
<!-- Title: import_cruiser Pages: 1 -->
<svg width="369pt" height="258pt"
 viewBox="-8.00 -8.00 369.00 258.00" xmlns="http://www.w3.org/2000/svg" xmlns:xlink="http://www.w3.org/1999/xlink">
<g id="graph0" class="graph" transform="scale(1 1) rotate(0) translate(4 237.88)">
<title>import_cruiser</title>
<polygon fill="white" stroke="none" points="-4,4 -4,-237.88 348.5,-237.88 348.5,4 -4,4"/>
<g id="clust1" class="cluster">
<title>cluster_import_cruiser</title>
<path fill="#ffffff" stroke="black" stroke-width="2" d="M20,-55.88C20,-55.88 324.5,-55.88 324.5,-55.88 330.5,-55.88 336.5,-61.88 336.5,-67.88 336.5,-67.88 336.5,-213.88 336.5,-213.88 336.5,-219.88 330.5,-225.88 324.5,-225.88 324.5,-225.88 20,-225.88 20,-225.88 14,-225.88 8,-219.88 8,-213.88 8,-213.88 8,-67.88 8,-67.88 8,-61.88 14,-55.88 20,-55.88"/>
<text xml:space="preserve" text-anchor="middle" x="172.25" y="-213.32" font-family="Helvetica,sans-Serif" font-weight="bold" font-size="9.00">import_cruiser [3015 LOC]</text>
</g>
<!-- click -->
<g id="node1" class="node">
<title>click</title>
<g id="a_node1"><a xlink:href="click" xlink:title="click">
<path fill="#dcfce7" stroke="#15803d" stroke-width="1.4" d="M185.83,-47.75C185.83,-47.75 143.67,-47.75 143.67,-47.75 140.71,-47.75 137.75,-44.79 137.75,-41.83 137.75,-41.83 137.75,-35.92 137.75,-35.92 137.75,-32.96 140.71,-30 143.67,-30 143.67,-30 185.83,-30 185.83,-30 188.79,-30 191.75,-32.96 191.75,-35.92 191.75,-35.92 191.75,-41.83 191.75,-41.83 191.75,-44.79 188.79,-47.75 185.83,-47.75"/>
<text xml:space="preserve" text-anchor="start" x="155.75" y="-35.2" font-family="Helvetica,sans-Serif" font-size="9.00" fill="#14532d">click</text>
</a>
</g>
</g>
<!-- import_cruiser.analyzer -->
<g id="node2" class="node">
<title>import_cruiser.analyzer</title>
<g id="a_node2"><a xlink:href="import_cruiser.analyzer" xlink:title="analyzer.py [366 LOC]">
<path fill="#ffffcc" stroke="black" d="M212.21,-169.75C212.21,-169.75 117.29,-169.75 117.29,-169.75 114.33,-169.75 111.38,-166.79 111.38,-163.83 111.38,-163.83 111.38,-157.92 111.38,-157.92 111.38,-154.96 114.33,-152 117.29,-152 117.29,-152 212.21,-152 212.21,-152 215.17,-152 218.12,-154.96 218.12,-157.92 218.12,-157.92 218.12,-163.83 218.12,-163.83 218.12,-166.79 215.17,-169.75 212.21,-169.75"/>
<text xml:space="preserve" text-anchor="start" x="119.38" y="-157.2" font-family="Helvetica,sans-Serif" font-size="9.00">analyzer.py [366 LOC]</text>
</a>
</g>
</g>
<!-- import_cruiser.graph -->
<g id="node7" class="node">
<title>import_cruiser.graph</title>
<g id="a_node7"><a xlink:href="import_cruiser.graph" xlink:title="graph.py [299 LOC]">
<path fill="#ffffcc" stroke="black" d="M322.58,-147.75C322.58,-147.75 238.92,-147.75 238.92,-147.75 235.96,-147.75 233,-144.79 233,-141.83 233,-141.83 233,-135.92 233,-135.92 233,-132.96 235.96,-130 238.92,-130 238.92,-130 322.58,-130 322.58,-130 325.54,-130 328.5,-132.96 328.5,-135.92 328.5,-135.92 328.5,-141.83 328.5,-141.83 328.5,-144.79 325.54,-147.75 322.58,-147.75"/>
<text xml:space="preserve" text-anchor="start" x="241" y="-135.2" font-family="Helvetica,sans-Serif" font-size="9.00">graph.py [299 LOC]</text>
</a>
</g>
</g>
<!-- import_cruiser.analyzer&#45;&gt;import_cruiser.graph -->
<g id="edge1" class="edge">
<title>import_cruiser.analyzer&#45;&gt;import_cruiser.graph</title>
<path fill="none" stroke="#000000" stroke-width="1.4" stroke-opacity="0.121569" d="M214.1,-151.55C217.38,-150.91 220.71,-150.27 224.03,-149.63"/>
<polygon fill="#000000" fill-opacity="0.121569" stroke="#000000" stroke-width="1.4" stroke-opacity="0.121569" points="224.29,-152.07 230.7,-148.34 223.36,-147.26 224.29,-152.07"/>
</g>
<!-- import_cruiser.cli -->
<g id="node3" class="node">
<title>import_cruiser.cli</title>
<g id="a_node3"><a xlink:href="import_cruiser.cli" xlink:title="cli.py [966 LOC]">
<path fill="#ffffcc" stroke="black" d="M90.58,-95.75C90.58,-95.75 21.92,-95.75 21.92,-95.75 18.96,-95.75 16,-92.79 16,-89.83 16,-89.83 16,-83.92 16,-83.92 16,-80.96 18.96,-78 21.92,-78 21.92,-78 90.58,-78 90.58,-78 93.54,-78 96.5,-80.96 96.5,-83.92 96.5,-83.92 96.5,-89.83 96.5,-89.83 96.5,-92.79 93.54,-95.75 90.58,-95.75"/>
<text xml:space="preserve" text-anchor="start" x="24" y="-83.2" font-family="Helvetica,sans-Serif" font-size="9.00">cli.py [966 LOC]</text>
</a>
</g>
</g>
<!-- import_cruiser.cli&#45;&gt;click -->
<g id="edge2" class="edge">
<title>import_cruiser.cli&#45;&gt;click</title>
<path fill="none" stroke="#15803d" stroke-width="1.8" stroke-dasharray="5,2" d="M69.06,-77.58C79.26,-69.96 94.64,-59.42 109.5,-52.88 115.36,-50.29 121.8,-48.12 128.12,-46.3"/>
<polygon fill="#15803d" stroke="#15803d" stroke-width="1.8" points="128.45,-48.75 134.6,-44.6 127.21,-44.01 128.45,-48.75"/>
</g>
<!-- import_cruiser.cli&#45;&gt;import_cruiser.analyzer -->
<g id="edge3" class="edge">
<title>import_cruiser.cli&#45;&gt;import_cruiser.analyzer</title>
<path fill="none" stroke="#000000" stroke-width="1.4" stroke-opacity="0.121569" d="M63.6,-96.16C72.49,-108.51 89.8,-130.24 109.5,-142.88 112.47,-144.78 115.66,-146.5 118.95,-148.06"/>
<polygon fill="#000000" fill-opacity="0.121569" stroke="#000000" stroke-width="1.4" stroke-opacity="0.121569" points="117.93,-150.28 125.33,-150.76 119.84,-145.77 117.93,-150.28"/>
</g>
<!-- import_cruiser.config -->
<g id="node4" class="node">
<title>import_cruiser.config</title>
<g id="a_node4"><a xlink:href="import_cruiser.config" xlink:title="config.py [46 LOC]">
<path fill="#ffffcc" stroke="black" d="M320.33,-88.75C320.33,-88.75 241.17,-88.75 241.17,-88.75 238.21,-88.75 235.25,-85.79 235.25,-82.83 235.25,-82.83 235.25,-76.92 235.25,-76.92 235.25,-73.96 238.21,-71 241.17,-71 241.17,-71 320.33,-71 320.33,-71 323.29,-71 326.25,-73.96 326.25,-76.92 326.25,-76.92 326.25,-82.83 326.25,-82.83 326.25,-85.79 323.29,-88.75 320.33,-88.75"/>
<text xml:space="preserve" text-anchor="start" x="243.25" y="-76.2" font-family="Helvetica,sans-Serif" font-size="9.00">config.py [46 LOC]</text>
</a>
</g>
</g>
<!-- import_cruiser.cli&#45;&gt;import_cruiser.config -->
<g id="edge4" class="edge">
<title>import_cruiser.cli&#45;&gt;import_cruiser.config</title>
<path fill="none" stroke="#000000" stroke-width="1.4" stroke-opacity="0.121569" d="M84.33,-77.55C92.33,-75.21 101.18,-73.05 109.5,-71.88 148.37,-66.41 192.66,-68.75 226.33,-72.28"/>
<polygon fill="#000000" fill-opacity="0.121569" stroke="#000000" stroke-width="1.4" stroke-opacity="0.121569" points="225.76,-74.68 232.98,-73.02 226.3,-69.81 225.76,-74.68"/>
</g>
<!-- import_cruiser.exporter -->
<g id="node6" class="node">
<title>import_cruiser.exporter</title>
<g id="a_node6"><a xlink:href="import_cruiser.exporter" xlink:title="exporter.py [1281 LOC]">
<path fill="#ffffcc" stroke="black" d="M214.08,-125.75C214.08,-125.75 115.42,-125.75 115.42,-125.75 112.46,-125.75 109.5,-122.79 109.5,-119.83 109.5,-119.83 109.5,-113.92 109.5,-113.92 109.5,-110.96 112.46,-108 115.42,-108 115.42,-108 214.08,-108 214.08,-108 217.04,-108 220,-110.96 220,-113.92 220,-113.92 220,-119.83 220,-119.83 220,-122.79 217.04,-125.75 214.08,-125.75"/>
<text xml:space="preserve" text-anchor="start" x="117.5" y="-113.2" font-family="Helvetica,sans-Serif" font-size="9.00">exporter.py [1281 LOC]</text>
</a>
</g>
</g>
<!-- import_cruiser.cli&#45;&gt;import_cruiser.exporter -->
<g id="edge5" class="edge">
<title>import_cruiser.cli&#45;&gt;import_cruiser.exporter</title>
<path fill="none" stroke="#000000" stroke-width="1.4" stroke-opacity="0.121569" d="M89.57,-96.21C96.16,-98.09 103.05,-100.06 109.5,-101.88 113.31,-102.95 117.26,-104.06 121.23,-105.16"/>
<polygon fill="#000000" fill-opacity="0.121569" stroke="#000000" stroke-width="1.4" stroke-opacity="0.121569" points="120.43,-107.48 127.84,-107 121.75,-102.76 120.43,-107.48"/>
</g>
<!-- import_cruiser.cli&#45;&gt;import_cruiser.graph -->
<g id="edge6" class="edge">
<title>import_cruiser.cli&#45;&gt;import_cruiser.graph</title>
<path fill="none" stroke="#000000" stroke-width="1.4" stroke-opacity="0.121569" d="M64.57,-96.17C73.74,-107.01 90.57,-124.4 109.5,-131.88 129.62,-139.82 182.33,-140.97 223.82,-140.5"/>
<polygon fill="#000000" fill-opacity="0.121569" stroke="#000000" stroke-width="1.4" stroke-opacity="0.121569" points="223.67,-142.95 230.63,-140.4 223.6,-138.05 223.67,-142.95"/>
</g>
<!-- import_cruiser.validator -->
<g id="node8" class="node">
<title>import_cruiser.validator</title>
<g id="a_node8"><a xlink:href="import_cruiser.validator" xlink:title="validator.py [53 LOC]">
<path fill="#ffffcc" stroke="black" d="M209.58,-95.75C209.58,-95.75 119.92,-95.75 119.92,-95.75 116.96,-95.75 114,-92.79 114,-89.83 114,-89.83 114,-83.92 114,-83.92 114,-80.96 116.96,-78 119.92,-78 119.92,-78 209.58,-78 209.58,-78 212.54,-78 215.5,-80.96 215.5,-83.92 215.5,-83.92 215.5,-89.83 215.5,-89.83 215.5,-92.79 212.54,-95.75 209.58,-95.75"/>
<text xml:space="preserve" text-anchor="start" x="122" y="-83.2" font-family="Helvetica,sans-Serif" font-size="9.00">validator.py [53 LOC]</text>
</a>
</g>
</g>
<!-- import_cruiser.cli&#45;&gt;import_cruiser.validator -->
<g id="edge7" class="edge">
<title>import_cruiser.cli&#45;&gt;import_cruiser.validator</title>
<path fill="none" stroke="#000000" stroke-width="1.4" stroke-opacity="0.121569" d="M96.91,-86.88C99.46,-86.88 102.05,-86.88 104.67,-86.88"/>
<polygon fill="#000000" fill-opacity="0.121569" stroke="#000000" stroke-width="1.4" stroke-opacity="0.121569" points="104.47,-89.33 111.47,-86.88 104.47,-84.43 104.47,-89.33"/>
</g>
<!-- tomli -->
<g id="node9" class="node">
<title>tomli</title>
<g id="a_node9"><a xlink:href="tomli" xlink:title="tomli">
<path fill="#dcfce7" stroke="#15803d" stroke-width="1.4" d="M185.83,-17.75C185.83,-17.75 143.67,-17.75 143.67,-17.75 140.71,-17.75 137.75,-14.79 137.75,-11.83 137.75,-11.83 137.75,-5.92 137.75,-5.92 137.75,-2.96 140.71,0 143.67,0 143.67,0 185.83,0 185.83,0 188.79,0 191.75,-2.96 191.75,-5.92 191.75,-5.92 191.75,-11.83 191.75,-11.83 191.75,-14.79 188.79,-17.75 185.83,-17.75"/>
<text xml:space="preserve" text-anchor="start" x="155" y="-5.2" font-family="Helvetica,sans-Serif" font-size="9.00" fill="#14532d">tomli</text>
</a>
</g>
</g>
<!-- import_cruiser.cli&#45;&gt;tomli -->
<g id="edge8" class="edge">
<title>import_cruiser.cli&#45;&gt;tomli</title>
<path fill="none" stroke="#15803d" stroke-width="1.8" stroke-dasharray="5,2" d="M62.38,-77.65C70.54,-63.84 87.78,-37.92 109.5,-23.88 115.07,-20.27 121.5,-17.53 127.94,-15.44"/>
<polygon fill="#15803d" stroke="#15803d" stroke-width="1.8" points="128.58,-17.8 134.66,-13.55 127.26,-13.08 128.58,-17.8"/>
</g>
<!-- import_cruiser.detector -->
<g id="node5" class="node">
<title>import_cruiser.detector</title>
<g id="a_node5"><a xlink:href="import_cruiser.detector" xlink:title="detector.py [4 LOC]">
<path fill="#ffffcc" stroke="black" d="M205.83,-199.75C205.83,-199.75 123.67,-199.75 123.67,-199.75 120.71,-199.75 117.75,-196.79 117.75,-193.83 117.75,-193.83 117.75,-187.92 117.75,-187.92 117.75,-184.96 120.71,-182 123.67,-182 123.67,-182 205.83,-182 205.83,-182 208.79,-182 211.75,-184.96 211.75,-187.92 211.75,-187.92 211.75,-193.83 211.75,-193.83 211.75,-196.79 208.79,-199.75 205.83,-199.75"/>
<text xml:space="preserve" text-anchor="start" x="125.75" y="-187.2" font-family="Helvetica,sans-Serif" font-size="9.00">detector.py [4 LOC]</text>
</a>
</g>
</g>
<!-- import_cruiser.detector&#45;&gt;import_cruiser.graph -->
<g id="edge9" class="edge">
<title>import_cruiser.detector&#45;&gt;import_cruiser.graph</title>
<path fill="none" stroke="#000000" stroke-width="1.4" stroke-opacity="0.121569" d="M204.75,-181.54C209.96,-179.88 215.17,-177.99 220,-175.88 233.99,-169.76 248.58,-160.78 259.84,-153.2"/>
<polygon fill="#000000" fill-opacity="0.121569" stroke="#000000" stroke-width="1.4" stroke-opacity="0.121569" points="260.93,-155.42 265.31,-149.43 258.15,-151.39 260.93,-155.42"/>
</g>
<!-- import_cruiser.exporter&#45;&gt;import_cruiser.graph -->
<g id="edge10" class="edge">
<title>import_cruiser.exporter&#45;&gt;import_cruiser.graph</title>
<path fill="none" stroke="#000000" stroke-width="1.4" stroke-opacity="0.121569" d="M214.1,-126.2C217.38,-126.84 220.71,-127.48 224.03,-128.12"/>
<polygon fill="#000000" fill-opacity="0.121569" stroke="#000000" stroke-width="1.4" stroke-opacity="0.121569" points="223.36,-130.49 230.7,-129.41 224.29,-125.68 223.36,-130.49"/>
</g>
<!-- import_cruiser.validator&#45;&gt;import_cruiser.config -->
<g id="edge11" class="edge">
<title>import_cruiser.validator&#45;&gt;import_cruiser.config</title>
<path fill="none" stroke="#000000" stroke-width="1.4" stroke-opacity="0.121569" d="M215.75,-83.8C219.12,-83.6 222.52,-83.39 225.91,-83.18"/>
<polygon fill="#000000" fill-opacity="0.121569" stroke="#000000" stroke-width="1.4" stroke-opacity="0.121569" points="225.86,-85.64 232.69,-82.76 225.56,-80.75 225.86,-85.64"/>
</g>
<!-- import_cruiser.validator&#45;&gt;import_cruiser.graph -->
<g id="edge12" class="edge">
<title>import_cruiser.validator&#45;&gt;import_cruiser.graph</title>
<path fill="none" stroke="#000000" stroke-width="1.4" stroke-opacity="0.121569" d="M204.75,-96.21C209.96,-97.87 215.17,-99.76 220,-101.88 233.99,-107.99 248.58,-116.97 259.84,-124.55"/>
<polygon fill="#000000" fill-opacity="0.121569" stroke="#000000" stroke-width="1.4" stroke-opacity="0.121569" points="258.15,-126.36 265.31,-128.32 260.93,-122.33 258.15,-126.36"/>
</g>
</g>
</svg>
