<?xml version="1.0" encoding="UTF-8" standalone="no"?>
<!DOCTYPE svg PUBLIC "-//W3C//DTD SVG 1.1//EN"
 "http://www.w3.org/Graphics/SVG/1.1/DTD/svg11.dtd">
<!-- Generated by graphviz version 13.0.1 (20250615.1724)
 -->
<!-- Title: import_cruiser Pages: 1 -->
<svg width="771pt" height="561pt"
 viewBox="24.00 24.00 738.00 529.00" xmlns="http://www.w3.org/2000/svg" xmlns:xlink="http://www.w3.org/1999/xlink">
<g id="graph0" class="graph" transform="scale(1 1) rotate(0) translate(64.8 480.3)">
<title>import_cruiser</title>
<polygon fill="white" stroke="none" points="-32.4,32.4 -32.4,-447.9 657.4,-447.9 657.4,32.4 -32.4,32.4"/>
<g id="clust1" class="cluster cluster_key_src">
<title>cluster_src</title>
<path fill="white" stroke="black" d="M20,-8C20,-8 605,-8 605,-8 611,-8 617,-14 617,-20 617,-20 617,-395.5 617,-395.5 617,-401.5 611,-407.5 605,-407.5 605,-407.5 20,-407.5 20,-407.5 14,-407.5 8,-401.5 8,-395.5 8,-395.5 8,-20 8,-20 8,-14 14,-8 20,-8"/>
<text xml:space="preserve" text-anchor="middle" x="312.5" y="-394.95" font-family="Helvetica,sans-Serif" font-size="9.00">src</text>
</g>
<g id="clust2" class="cluster cluster_key_src_import_cruiser">
<title>cluster_src_import_cruiser</title>
<path fill="white" stroke="black" d="M46,-34C46,-34 553,-34 553,-34 559,-34 565,-40 565,-46 565,-46 565,-351.75 565,-351.75 565,-357.75 559,-363.75 553,-363.75 553,-363.75 46,-363.75 46,-363.75 40,-363.75 34,-357.75 34,-351.75 34,-351.75 34,-46 34,-46 34,-40 40,-34 46,-34"/>
<text xml:space="preserve" text-anchor="middle" x="299.5" y="-351.2" font-family="Helvetica,sans-Serif" font-size="9.00">import_cruiser</text>
</g>
<!-- __cluster_anchor_src -->
<!-- import_cruiser.analyzer -->
<g id="node2" class="node node_cluster_src_import_cruiser">
<title>import_cruiser.analyzer</title>
<g id="a_node2"><a xlink:title="/Users/kevin/.codex/worktrees/ae68/pydepend/src/import_cruiser/analyzer.py">
<path fill="#dff3f8" stroke="#2f2f2f" d="M419.75,-208C419.75,-208 378.25,-208 378.25,-208 372.25,-208 366.25,-202 366.25,-196 366.25,-196 366.25,-184 366.25,-184 366.25,-178 372.25,-172 378.25,-172 378.25,-172 419.75,-172 419.75,-172 425.75,-172 431.75,-178 431.75,-184 431.75,-184 431.75,-196 431.75,-196 431.75,-202 425.75,-208 419.75,-208"/>
<text xml:space="preserve" text-anchor="middle" x="399" y="-186.12" font-family="Helvetica,sans-Serif" font-size="10.00">analyzer.py</text>
</a>
</g>
</g>
<!-- import_cruiser.graph -->
<g id="node7" class="node node_cluster_src_import_cruiser">
<title>import_cruiser.graph</title>
<g id="a_node7"><a xlink:title="/Users/kevin/.codex/worktrees/ae68/pydepend/src/import_cruiser/graph.py">
<path fill="#dff3f8" stroke="#2f2f2f" d="M337,-96C337,-96 307,-96 307,-96 301,-96 295,-90 295,-84 295,-84 295,-72 295,-72 295,-66 301,-60 307,-60 307,-60 337,-60 337,-60 343,-60 349,-66 349,-72 349,-72 349,-84 349,-84 349,-90 343,-96 337,-96"/>
<text xml:space="preserve" text-anchor="middle" x="322" y="-74.12" font-family="Helvetica,sans-Serif" font-size="10.00">graph.py</text>
</a>
</g>
</g>
<!-- import_cruiser.analyzer&#45;&gt;import_cruiser.graph -->
<g id="edge1" class="edge">
<title>import_cruiser.analyzer&#45;&gt;import_cruiser.graph</title>
<path fill="none" stroke="#b0b0b0" d="M393.49,-171.75C380.67,-129.74 374.76,-115.55 356.18,-100.74"/>
<polygon fill="#b0b0b0" stroke="#b0b0b0" points="357.66,-98.78 350.58,-96.56 354.72,-102.71 357.66,-98.78"/>
</g>
<!-- import_cruiser.cli -->
<g id="node3" class="node node_cluster_src_import_cruiser">
<title>import_cruiser.cli</title>
<g id="a_node3"><a xlink:title="/Users/kevin/.codex/worktrees/ae68/pydepend/src/import_cruiser/cli.py">
<path fill="#dff3f8" stroke="#2f2f2f" d="M261,-320C261,-320 231,-320 231,-320 225,-320 219,-314 219,-308 219,-308 219,-296 219,-296 219,-290 225,-284 231,-284 231,-284 261,-284 261,-284 267,-284 273,-290 273,-296 273,-296 273,-308 273,-308 273,-314 267,-320 261,-320"/>
<text xml:space="preserve" text-anchor="middle" x="246" y="-298.12" font-family="Helvetica,sans-Serif" font-size="10.00">cli.py</text>
</a>
</g>
</g>
<!-- import_cruiser.cli&#45;&gt;import_cruiser.analyzer -->
<g id="edge2" class="edge">
<title>import_cruiser.cli&#45;&gt;import_cruiser.analyzer</title>
<path fill="none" stroke="#b0b0b0" d="M273.36,-295.73C326.33,-282.99 337.82,-273.89 380.94,-214.92"/>
<polygon fill="#b0b0b0" stroke="#b0b0b0" points="382.75,-216.59 384.9,-209.49 378.79,-213.71 382.75,-216.59"/>
</g>
<!-- import_cruiser.config -->
<g id="node4" class="node node_cluster_src_import_cruiser">
<title>import_cruiser.config</title>
<g id="a_node4"><a xlink:title="/Users/kevin/.codex/worktrees/ae68/pydepend/src/import_cruiser/config.py">
<path fill="#dff3f8" stroke="#2f2f2f" d="M128.88,-96C128.88,-96 97.12,-96 97.12,-96 91.12,-96 85.12,-90 85.12,-84 85.12,-84 85.12,-72 85.12,-72 85.12,-66 91.12,-60 97.12,-60 97.12,-60 128.88,-60 128.88,-60 134.88,-60 140.88,-66 140.88,-72 140.88,-72 140.88,-84 140.88,-84 140.88,-90 134.88,-96 128.88,-96"/>
<text xml:space="preserve" text-anchor="middle" x="113" y="-74.12" font-family="Helvetica,sans-Serif" font-size="10.00">config.py</text>
</a>
</g>
</g>
<!-- import_cruiser.cli&#45;&gt;import_cruiser.config -->
<g id="edge3" class="edge">
<title>import_cruiser.cli&#45;&gt;import_cruiser.config</title>
<path fill="none" stroke="#b0b0b0" d="M227.66,-283.52C137.62,-192.69 128.15,-179.35 116.86,-104.75"/>
<polygon fill="#b0b0b0" stroke="#b0b0b0" points="119.29,-104.41 115.84,-97.85 114.44,-105.13 119.29,-104.41"/>
</g>
<!-- import_cruiser.exporter -->
<g id="node6" class="node node_cluster_src_import_cruiser">
<title>import_cruiser.exporter</title>
<g id="a_node6"><a xlink:title="/Users/kevin/.codex/worktrees/ae68/pydepend/src/import_cruiser/exporter.py">
<path fill="#dff3f8" stroke="#2f2f2f" d="M266,-208C266,-208 226,-208 226,-208 220,-208 214,-202 214,-196 214,-196 214,-184 214,-184 214,-178 220,-172 226,-172 226,-172 266,-172 266,-172 272,-172 278,-178 278,-184 278,-184 278,-196 278,-196 278,-202 272,-208 266,-208"/>
<text xml:space="preserve" text-anchor="middle" x="246" y="-186.12" font-family="Helvetica,sans-Serif" font-size="10.00">exporter.py</text>
</a>
</g>
</g>
<!-- import_cruiser.cli&#45;&gt;import_cruiser.exporter -->
<g id="edge4" class="edge">
<title>import_cruiser.cli&#45;&gt;import_cruiser.exporter</title>
<path fill="none" stroke="#b0b0b0" d="M238.32,-283.84C229.1,-260.66 229.14,-250.52 238.46,-216.48"/>
<polygon fill="#b0b0b0" stroke="#b0b0b0" points="240.81,-217.19 240.33,-209.79 236.09,-215.88 240.81,-217.19"/>
</g>
<!-- import_cruiser.cli&#45;&gt;import_cruiser.graph -->
<g id="edge5" class="edge">
<title>import_cruiser.cli&#45;&gt;import_cruiser.graph</title>
<path fill="none" stroke="#b0b0b0" d="M245.72,-283.61C244.2,-177.73 246.81,-163.12 300.12,-102.51"/>
<polygon fill="#b0b0b0" stroke="#b0b0b0" points="301.63,-104.5 304.43,-97.63 297.96,-101.25 301.63,-104.5"/>
</g>
<!-- import_cruiser.validator -->
<g id="node8" class="node node_cluster_src_import_cruiser">
<title>import_cruiser.validator</title>
<g id="a_node8"><a xlink:title="/Users/kevin/.codex/worktrees/ae68/pydepend/src/import_cruiser/validator.py">
<path fill="#dff3f8" stroke="#2f2f2f" d="M158.75,-208C158.75,-208 117.25,-208 117.25,-208 111.25,-208 105.25,-202 105.25,-196 105.25,-196 105.25,-184 105.25,-184 105.25,-178 111.25,-172 117.25,-172 117.25,-172 158.75,-172 158.75,-172 164.75,-172 170.75,-178 170.75,-184 170.75,-184 170.75,-196 170.75,-196 170.75,-202 164.75,-208 158.75,-208"/>
<text xml:space="preserve" text-anchor="middle" x="138" y="-186.12" font-family="Helvetica,sans-Serif" font-size="10.00">validator.py</text>
</a>
</g>
</g>
<!-- import_cruiser.cli&#45;&gt;import_cruiser.validator -->
<g id="edge6" class="edge">
<title>import_cruiser.cli&#45;&gt;import_cruiser.validator</title>
<path fill="none" stroke="#b0b0b0" d="M218.72,-286.71C172.05,-260.16 161.99,-250.67 148.01,-216.23"/>
<polygon fill="#b0b0b0" stroke="#b0b0b0" points="150.36,-215.51 145.51,-209.9 145.8,-217.31 150.36,-215.51"/>
</g>
<!-- import_cruiser.detector -->
<g id="node5" class="node node_cluster_src_import_cruiser">
<title>import_cruiser.detector</title>
<g id="a_node5"><a xlink:title="/Users/kevin/.codex/worktrees/ae68/pydepend/src/import_cruiser/detector.py">
<path fill="#dff3f8" stroke="#2f2f2f" d="M527,-208C527,-208 487,-208 487,-208 481,-208 475,-202 475,-196 475,-196 475,-184 475,-184 475,-178 481,-172 487,-172 487,-172 527,-172 527,-172 533,-172 539,-178 539,-184 539,-184 539,-196 539,-196 539,-202 533,-208 527,-208"/>
<text xml:space="preserve" text-anchor="middle" x="507" y="-186.12" font-family="Helvetica,sans-Serif" font-size="10.00">detector.py</text>
</a>
</g>
</g>
<!-- import_cruiser.detector&#45;&gt;import_cruiser.graph -->
<g id="edge7" class="edge">
<title>import_cruiser.detector&#45;&gt;import_cruiser.graph</title>
<path fill="none" stroke="#b0b0b0" d="M493.92,-171.56C453.74,-115.5 441.68,-107.42 357.42,-86.59"/>
<polygon fill="#b0b0b0" stroke="#b0b0b0" points="358.16,-84.25 350.78,-84.96 356.99,-89 358.16,-84.25"/>
</g>
<!-- import_cruiser.exporter&#45;&gt;import_cruiser.graph -->
<g id="edge8" class="edge">
<title>import_cruiser.exporter&#45;&gt;import_cruiser.graph</title>
<path fill="none" stroke="#b0b0b0" d="M252.42,-171.58C266.85,-130.5 273.41,-115.2 288.36,-101.72"/>
<polygon fill="#b0b0b0" stroke="#b0b0b0" points="289.8,-103.71 293.63,-97.36 286.67,-99.93 289.8,-103.71"/>
</g>
<!-- import_cruiser.validator&#45;&gt;import_cruiser.config -->
<g id="edge9" class="edge">
<title>import_cruiser.validator&#45;&gt;import_cruiser.config</title>
<path fill="none" stroke="#b0b0b0" d="M128.39,-171.64C110.42,-136.95 106.29,-125.6 108.62,-104.5"/>
<polygon fill="#b0b0b0" stroke="#b0b0b0" points="111.02,-105 109.55,-97.73 106.17,-104.33 111.02,-105"/>
</g>
<!-- import_cruiser.validator&#45;&gt;import_cruiser.graph -->
<g id="edge10" class="edge">
<title>import_cruiser.validator&#45;&gt;import_cruiser.graph</title>
<path fill="none" stroke="#b0b0b0" d="M151.03,-171.64C193.19,-112.74 205.02,-104.45 286.63,-85.86"/>
<polygon fill="#b0b0b0" stroke="#b0b0b0" points="286.98,-88.29 293.27,-84.36 285.9,-83.51 286.98,-88.29"/>
</g>
</g>
</svg>
