<?xml version="1.0" encoding="UTF-8" standalone="no"?>
<!DOCTYPE svg PUBLIC "-//W3C//DTD SVG 1.1//EN"
 "http://www.w3.org/Graphics/SVG/1.1/DTD/svg11.dtd">
<!-- Generated by graphviz version 13.0.1 (20250615.1724)
 -->
<!-- Title: import_cruiser Pages: 1 -->
<svg width="846pt" height="589pt"
 viewBox="24.00 24.00 813.00 557.00" xmlns="http://www.w3.org/2000/svg" xmlns:xlink="http://www.w3.org/1999/xlink">
<g id="graph0" class="graph" transform="scale(1 1) rotate(0) translate(64.8 508.3)">
<title>import_cruiser</title>
<polygon fill="white" stroke="none" points="-32.4,32.4 -32.4,-475.9 732.4,-475.9 732.4,32.4 -32.4,32.4"/>
<g id="clust1" class="cluster cluster_key_src">
<title>cluster_src</title>
<path fill="white" stroke="black" d="M20,-8C20,-8 680,-8 680,-8 686,-8 692,-14 692,-20 692,-20 692,-423.5 692,-423.5 692,-429.5 686,-435.5 680,-435.5 680,-435.5 20,-435.5 20,-435.5 14,-435.5 8,-429.5 8,-423.5 8,-423.5 8,-20 8,-20 8,-14 14,-8 20,-8"/>
<text xml:space="preserve" text-anchor="middle" x="350" y="-422.95" font-family="Helvetica,sans-Serif" font-size="9.00">src</text>
</g>
<g id="clust2" class="cluster cluster_key_src_import_cruiser">
<title>cluster_src_import_cruiser</title>
<path fill="white" stroke="black" d="M46,-34C46,-34 628,-34 628,-34 634,-34 640,-40 640,-46 640,-46 640,-379.75 640,-379.75 640,-385.75 634,-391.75 628,-391.75 628,-391.75 46,-391.75 46,-391.75 40,-391.75 34,-385.75 34,-379.75 34,-379.75 34,-46 34,-46 34,-40 40,-34 46,-34"/>
<text xml:space="preserve" text-anchor="middle" x="337" y="-379.2" font-family="Helvetica,sans-Serif" font-size="9.00">import_cruiser</text>
</g>
<!-- __cluster_anchor_src -->
<!-- import_cruiser.analyzer -->
<g id="node2" class="node node_cluster_src_import_cruiser">
<title>import_cruiser.analyzer</title>
<g id="a_node2"><a xlink:title="/Users/kevin/.codex/worktrees/ae68/pydepend/src/import_cruiser/analyzer.py">
<path fill="#dff3f8" stroke="#2f2f2f" d="M479.75,-222C479.75,-222 438.25,-222 438.25,-222 432.25,-222 426.25,-216 426.25,-210 426.25,-210 426.25,-198 426.25,-198 426.25,-192 432.25,-186 438.25,-186 438.25,-186 479.75,-186 479.75,-186 485.75,-186 491.75,-192 491.75,-198 491.75,-198 491.75,-210 491.75,-210 491.75,-216 485.75,-222 479.75,-222"/>
<text xml:space="preserve" text-anchor="middle" x="459" y="-200.12" font-family="Helvetica,sans-Serif" font-size="10.00">analyzer.py</text>
</a>
</g>
</g>
<!-- import_cruiser.graph -->
<g id="node7" class="node node_cluster_src_import_cruiser">
<title>import_cruiser.graph</title>
<g id="a_node7"><a xlink:title="/Users/kevin/.codex/worktrees/ae68/pydepend/src/import_cruiser/graph.py">
<path fill="#dff3f8" stroke="#2f2f2f" d="M382,-96C382,-96 352,-96 352,-96 346,-96 340,-90 340,-84 340,-84 340,-72 340,-72 340,-66 346,-60 352,-60 352,-60 382,-60 382,-60 388,-60 394,-66 394,-72 394,-72 394,-84 394,-84 394,-90 388,-96 382,-96"/>
<text xml:space="preserve" text-anchor="middle" x="367" y="-74.12" font-family="Helvetica,sans-Serif" font-size="10.00">graph.py</text>
</a>
</g>
</g>
<!-- import_cruiser.analyzer&#45;&gt;import_cruiser.graph -->
<g id="edge1" class="edge">
<title>import_cruiser.analyzer&#45;&gt;import_cruiser.graph</title>
<path fill="none" stroke="#b0b0b0" d="M426.16,-210C404.65,-210 380.5,-210 380.5,-210 380.5,-210 380.5,-104.87 380.5,-104.87"/>
<polygon fill="#b0b0b0" stroke="#b0b0b0" points="382.95,-104.87 380.5,-97.87 378.05,-104.87 382.95,-104.87"/>
</g>
<!-- import_cruiser.cli -->
<g id="node3" class="node node_cluster_src_import_cruiser">
<title>import_cruiser.cli</title>
<g id="a_node3"><a xlink:title="/Users/kevin/.codex/worktrees/ae68/pydepend/src/import_cruiser/cli.py">
<path fill="#dff3f8" stroke="#2f2f2f" d="M291,-348C291,-348 261,-348 261,-348 255,-348 249,-342 249,-336 249,-336 249,-324 249,-324 249,-318 255,-312 261,-312 261,-312 291,-312 291,-312 297,-312 303,-318 303,-324 303,-324 303,-336 303,-336 303,-342 297,-348 291,-348"/>
<text xml:space="preserve" text-anchor="middle" x="276" y="-326.12" font-family="Helvetica,sans-Serif" font-size="10.00">cli.py</text>
</a>
</g>
</g>
<!-- import_cruiser.cli&#45;&gt;import_cruiser.analyzer -->
<g id="edge2" class="edge">
<title>import_cruiser.cli&#45;&gt;import_cruiser.analyzer</title>
<path fill="none" stroke="#b0b0b0" d="M303.4,-323C354.45,-323 459,-323 459,-323 459,-323 459,-230.85 459,-230.85"/>
<polygon fill="#b0b0b0" stroke="#b0b0b0" points="461.45,-230.85 459,-223.85 456.55,-230.85 461.45,-230.85"/>
</g>
<!-- import_cruiser.config -->
<g id="node4" class="node node_cluster_src_import_cruiser">
<title>import_cruiser.config</title>
<g id="a_node4"><a xlink:title="/Users/kevin/.codex/worktrees/ae68/pydepend/src/import_cruiser/config.py">
<path fill="#dff3f8" stroke="#2f2f2f" d="M136.88,-96C136.88,-96 105.12,-96 105.12,-96 99.12,-96 93.12,-90 93.12,-84 93.12,-84 93.12,-72 93.12,-72 93.12,-66 99.12,-60 105.12,-60 105.12,-60 136.88,-60 136.88,-60 142.88,-60 148.88,-66 148.88,-72 148.88,-72 148.88,-84 148.88,-84 148.88,-90 142.88,-96 136.88,-96"/>
<text xml:space="preserve" text-anchor="middle" x="121" y="-74.12" font-family="Helvetica,sans-Serif" font-size="10.00">config.py</text>
</a>
</g>
</g>
<!-- import_cruiser.cli&#45;&gt;import_cruiser.config -->
<g id="edge3" class="edge">
<title>import_cruiser.cli&#45;&gt;import_cruiser.config</title>
<path fill="none" stroke="#b0b0b0" d="M248.8,-336C200.94,-336 106.69,-336 106.69,-336 106.69,-336 106.69,-104.66 106.69,-104.66"/>
<polygon fill="#b0b0b0" stroke="#b0b0b0" points="109.14,-104.66 106.69,-97.66 104.24,-104.66 109.14,-104.66"/>
</g>
<!-- import_cruiser.exporter -->
<g id="node6" class="node node_cluster_src_import_cruiser">
<title>import_cruiser.exporter</title>
<g id="a_node6"><a xlink:title="/Users/kevin/.codex/worktrees/ae68/pydepend/src/import_cruiser/exporter.py">
<path fill="#dff3f8" stroke="#2f2f2f" d="M296,-222C296,-222 256,-222 256,-222 250,-222 244,-216 244,-210 244,-210 244,-198 244,-198 244,-192 250,-186 256,-186 256,-186 296,-186 296,-186 302,-186 308,-192 308,-198 308,-198 308,-210 308,-210 308,-216 302,-222 296,-222"/>
<text xml:space="preserve" text-anchor="middle" x="276" y="-200.12" font-family="Helvetica,sans-Serif" font-size="10.00">exporter.py</text>
</a>
</g>
</g>
<!-- import_cruiser.cli&#45;&gt;import_cruiser.exporter -->
<g id="edge4" class="edge">
<title>import_cruiser.cli&#45;&gt;import_cruiser.exporter</title>
<path fill="none" stroke="#b0b0b0" d="M276,-311.68C276,-311.68 276,-230.86 276,-230.86"/>
<polygon fill="#b0b0b0" stroke="#b0b0b0" points="278.45,-230.86 276,-223.86 273.55,-230.86 278.45,-230.86"/>
</g>
<!-- import_cruiser.cli&#45;&gt;import_cruiser.graph -->
<g id="edge5" class="edge">
<title>import_cruiser.cli&#45;&gt;import_cruiser.graph</title>
<path fill="none" stroke="#b0b0b0" d="M303.3,-318C330.11,-318 367,-318 367,-318 367,-318 367,-104.95 367,-104.95"/>
<polygon fill="#b0b0b0" stroke="#b0b0b0" points="369.45,-104.95 367,-97.95 364.55,-104.95 369.45,-104.95"/>
</g>
<!-- import_cruiser.validator -->
<g id="node8" class="node node_cluster_src_import_cruiser">
<title>import_cruiser.validator</title>
<g id="a_node8"><a xlink:title="/Users/kevin/.codex/worktrees/ae68/pydepend/src/import_cruiser/validator.py">
<path fill="#dff3f8" stroke="#2f2f2f" d="M173.75,-222C173.75,-222 132.25,-222 132.25,-222 126.25,-222 120.25,-216 120.25,-210 120.25,-210 120.25,-198 120.25,-198 120.25,-192 126.25,-186 132.25,-186 132.25,-186 173.75,-186 173.75,-186 179.75,-186 185.75,-192 185.75,-198 185.75,-198 185.75,-210 185.75,-210 185.75,-216 179.75,-222 173.75,-222"/>
<text xml:space="preserve" text-anchor="middle" x="153" y="-200.12" font-family="Helvetica,sans-Serif" font-size="10.00">validator.py</text>
</a>
</g>
</g>
<!-- import_cruiser.cli&#45;&gt;import_cruiser.validator -->
<g id="edge6" class="edge">
<title>import_cruiser.cli&#45;&gt;import_cruiser.validator</title>
<path fill="none" stroke="#b0b0b0" d="M248.7,-324C212.47,-324 153,-324 153,-324 153,-324 153,-231 153,-231"/>
<polygon fill="#b0b0b0" stroke="#b0b0b0" points="155.45,-231 153,-224 150.55,-231 155.45,-231"/>
</g>
<!-- import_cruiser.detector -->
<g id="node5" class="node node_cluster_src_import_cruiser">
<title>import_cruiser.detector</title>
<g id="a_node5"><a xlink:title="/Users/kevin/.codex/worktrees/ae68/pydepend/src/import_cruiser/detector.py">
<path fill="#dff3f8" stroke="#2f2f2f" d="M602,-222C602,-222 562,-222 562,-222 556,-222 550,-216 550,-210 550,-210 550,-198 550,-198 550,-192 556,-186 562,-186 562,-186 602,-186 602,-186 608,-186 614,-192 614,-198 614,-198 614,-210 614,-210 614,-216 608,-222 602,-222"/>
<text xml:space="preserve" text-anchor="middle" x="582" y="-200.12" font-family="Helvetica,sans-Serif" font-size="10.00">detector.py</text>
</a>
</g>
</g>
<!-- import_cruiser.detector&#45;&gt;import_cruiser.graph -->
<g id="edge7" class="edge">
<title>import_cruiser.detector&#45;&gt;import_cruiser.graph</title>
<path fill="none" stroke="#b0b0b0" d="M582,-185.68C582,-150.73 582,-78 582,-78 582,-78 402.74,-78 402.74,-78"/>
<polygon fill="#b0b0b0" stroke="#b0b0b0" points="402.74,-75.55 395.74,-78 402.74,-80.45 402.74,-75.55"/>
</g>
<!-- import_cruiser.exporter&#45;&gt;import_cruiser.graph -->
<g id="edge8" class="edge">
<title>import_cruiser.exporter&#45;&gt;import_cruiser.graph</title>
<path fill="none" stroke="#b0b0b0" d="M308.42,-198C329.65,-198 353.5,-198 353.5,-198 353.5,-198 353.5,-105 353.5,-105"/>
<polygon fill="#b0b0b0" stroke="#b0b0b0" points="355.95,-105 353.5,-98 351.05,-105 355.95,-105"/>
</g>
<!-- import_cruiser.validator&#45;&gt;import_cruiser.config -->
<g id="edge9" class="edge">
<title>import_cruiser.validator&#45;&gt;import_cruiser.config</title>
<path fill="none" stroke="#b0b0b0" d="M134.56,-185.68C134.56,-185.68 134.56,-104.86 134.56,-104.86"/>
<polygon fill="#b0b0b0" stroke="#b0b0b0" points="137.01,-104.86 134.56,-97.86 132.11,-104.86 137.01,-104.86"/>
</g>
<!-- import_cruiser.validator&#45;&gt;import_cruiser.graph -->
<g id="edge10" class="edge">
<title>import_cruiser.validator&#45;&gt;import_cruiser.graph</title>
<path fill="none" stroke="#b0b0b0" d="M167.31,-185.68C167.31,-150.73 167.31,-78 167.31,-78 167.31,-78 331.14,-78 331.14,-78"/>
<polygon fill="#b0b0b0" stroke="#b0b0b0" points="331.14,-80.45 338.14,-78 331.14,-75.55 331.14,-80.45"/>
</g>
</g>
</svg>
